<?xml version="1.0" encoding="utf-8"?>
<!-- Generator: Adobe Illustrator 22.1.0, SVG Export Plug-In . SVG Version: 6.00 Build 0)  -->
<svg version="1.1" id="Layer_1" xmlns="http://www.w3.org/2000/svg" xmlns:xlink="http://www.w3.org/1999/xlink" x="0px" y="0px"
	 viewBox="0 0 100 41.7" style="enable-background:new 0 0 100 41.7;" xml:space="preserve">
<style type="text/css">
	.st0{fill:#8D6F3D;stroke:#010101;stroke-width:0.4197;stroke-miterlimit:10;}
	.st1{fill:#8D6F3D;stroke:#010101;stroke-width:0.432;stroke-miterlimit:10;}
	.st2{fill:#010101;}
	.st3{fill:#F37021;}
	.st4{fill:#FCD00C;}
	.st5{fill:#FFFFFF;}
	.st6{fill:#BC772A;}
	.st7{fill:#BC772A;stroke:#010101;stroke-width:0.3347;stroke-miterlimit:10;}
	.st8{fill:#BB772B;}
	.st9{fill:#F8CCE0;}
	.st10{fill:#00BDF2;}
	.st11{fill:#FBD00D;}
	.st12{fill:#EF68A3;}
	.st13{fill:none;}
	.st14{fill:#6ECEF5;}
	.st15{fill:#E9262A;}
	.st16{fill:#015474;}
	.st17{fill:#0886B2;}
	.st18{fill:#221F1F;}
	.st19{fill:#FAF6BD;}
	.st20{fill:#F9A554;}
	.st21{fill:#ED2938;}
	.st22{fill:#85482B;}
	.st23{fill:#FFFFFF;stroke:#010101;stroke-width:0.4855;stroke-miterlimit:10;}
	.st24{fill:none;stroke:#010101;stroke-width:0.4855;stroke-miterlimit:10;}
	.st25{fill:#FFFFFF;stroke:#010101;stroke-width:0.3138;stroke-miterlimit:10;}
	.st26{fill:url(#SVGID_1_);stroke:#010101;stroke-width:0.4855;stroke-miterlimit:10;}
	.st27{fill:url(#SVGID_2_);stroke:#010101;stroke-width:0.4855;stroke-miterlimit:10;}
	.st28{fill:url(#SVGID_3_);stroke:#010101;stroke-width:0.4855;stroke-miterlimit:10;}
	.st29{fill:#FFFFFF;stroke:#010101;stroke-width:0.4855;stroke-linecap:round;stroke-miterlimit:10;}
	.st30{fill:url(#SVGID_4_);stroke:#010101;stroke-width:0.4855;stroke-miterlimit:10;}
	.st31{fill:url(#SVGID_5_);stroke:#010101;stroke-width:0.4855;stroke-miterlimit:10;}
	.st32{fill:url(#SVGID_6_);stroke:#010101;stroke-width:0.4855;stroke-miterlimit:10;}
	.st33{fill:url(#SVGID_7_);stroke:#010101;stroke-width:0.4855;stroke-miterlimit:10;}
	.st34{fill:url(#SVGID_8_);stroke:#010101;stroke-width:0.4855;stroke-miterlimit:10;}
	.st35{fill:url(#SVGID_9_);stroke:#010101;stroke-width:0.4855;stroke-miterlimit:10;}
	.st36{fill:url(#SVGID_10_);stroke:#010101;stroke-width:0.4855;stroke-miterlimit:10;}
	.st37{fill:url(#SVGID_11_);stroke:#010101;stroke-width:0.4855;stroke-miterlimit:10;}
	.st38{fill:url(#SVGID_12_);stroke:#010101;stroke-width:0.4855;stroke-miterlimit:10;}
	.st39{fill:#FFFFFF;stroke:#010101;stroke-width:1.4119;stroke-miterlimit:10;}
	.st40{fill:none;stroke:#010101;stroke-width:0.4855;stroke-miterlimit:10;stroke-dasharray:0.93,0.93;}
	.st41{fill:none;stroke:#010101;stroke-width:0.4855;stroke-miterlimit:10;stroke-dasharray:2.4799,0.93,0.93,0.93;}
	.st42{fill:none;stroke:#010101;stroke-width:0.4855;stroke-miterlimit:10;stroke-dasharray:0.8869,0.8869;}
	.st43{fill:none;stroke:#010101;stroke-width:0.4855;stroke-miterlimit:10;stroke-dasharray:2.365,0.8869,0.8869,0.8869;}
	.st44{fill:none;stroke:#010101;stroke-width:0.4855;stroke-miterlimit:10;stroke-dasharray:0.8768,0.8768;}
	.st45{fill:none;stroke:#010101;stroke-width:0.4855;stroke-miterlimit:10;stroke-dasharray:2.3382,0.8768,0.8768,0.8768;}
	.st46{fill:none;stroke:#010101;stroke-width:0.4855;stroke-miterlimit:10;stroke-dasharray:0.8668,0.8668;}
	.st47{fill:none;stroke:#010101;stroke-width:0.4855;stroke-miterlimit:10;stroke-dasharray:2.3116,0.8668,0.8668,0.8668;}
	.st48{fill:none;stroke:#010101;stroke-width:0.4855;stroke-miterlimit:10;stroke-dasharray:0.8407,0.8407;}
	.st49{fill:none;stroke:#010101;stroke-width:0.4855;stroke-miterlimit:10;stroke-dasharray:2.2418,0.8407,0.8407,0.8407;}
	.st50{fill:none;stroke:#010101;stroke-width:0.4855;stroke-miterlimit:10;stroke-dasharray:0.8217,0.8217;}
	.st51{fill:none;stroke:#010101;stroke-width:0.4855;stroke-miterlimit:10;stroke-dasharray:2.1911,0.8217,0.8217,0.8217;}
	.st52{fill:none;stroke:#010101;stroke-width:0.4855;stroke-miterlimit:10;stroke-dasharray:0.7993,0.7993;}
	.st53{fill:none;stroke:#010101;stroke-width:0.4855;stroke-miterlimit:10;stroke-dasharray:2.1314,0.7993,0.7993,0.7993;}
	.st54{fill:none;stroke:#010101;stroke-width:0.4855;stroke-miterlimit:10;stroke-dasharray:0.8527,0.8527;}
	.st55{fill:none;stroke:#010101;stroke-width:0.4855;stroke-miterlimit:10;stroke-dasharray:2.2739,0.8527,0.8527,0.8527;}
	.st56{fill:none;stroke:#010101;stroke-width:0.4855;stroke-miterlimit:10;stroke-dasharray:0.8398,0.8398;}
	.st57{fill:none;stroke:#010101;stroke-width:0.4855;stroke-miterlimit:10;stroke-dasharray:2.2396,0.8398,0.8398,0.8398;}
	.st58{fill:none;stroke:#010101;stroke-width:0.4855;stroke-miterlimit:10;stroke-dasharray:1.098,1.098;}
	.st59{fill:none;stroke:#010101;stroke-width:0.4855;stroke-miterlimit:10;stroke-dasharray:2.928,1.098,1.098,1.098;}
	.st60{fill:none;stroke:#010101;stroke-width:0.5849;stroke-linecap:round;stroke-miterlimit:10;}
	.st61{fill:#020202;}
	.st62{fill:#BD782B;}
	.st63{fill:none;stroke:#020202;stroke-width:0.4614;stroke-linecap:round;stroke-miterlimit:10;}
	.st64{fill:#FFFFFF;stroke:#020202;stroke-width:0.4614;stroke-miterlimit:10;}
	.st65{fill:none;stroke:#020202;stroke-width:0.4614;stroke-miterlimit:10;}
	.st66{fill:#EF496B;}
	.st67{fill:none;stroke:#1FBCEE;stroke-width:0.4614;stroke-miterlimit:10;}
	.st68{fill:#FFFFFF;stroke:#020202;stroke-width:0.517;stroke-linecap:round;stroke-linejoin:round;stroke-miterlimit:10;}
	.st69{fill:none;stroke:#020202;stroke-width:0.498;stroke-linejoin:round;stroke-miterlimit:10;}
	.st70{fill:#020202;stroke:#020202;stroke-width:0.517;stroke-miterlimit:10;}
	.st71{fill:#020202;stroke:#BA2428;stroke-width:0.517;stroke-miterlimit:10;}
	.st72{fill:#020202;stroke:#BA2428;stroke-width:0.332;stroke-miterlimit:10;}
	.st73{fill:#FBD011;}
	.st74{fill:#F1DC28;}
	.st75{fill:#FFFFFF;stroke:#020202;stroke-width:0.3267;stroke-miterlimit:10;}
	.st76{fill:none;stroke:#020202;stroke-width:0.3267;stroke-linecap:round;stroke-miterlimit:10;}
</style>
<g>
	<g>
		<path class="st2" d="M34.1,35.3c1,0,1.7,0.9,2.2,2.1c1.2,2.8,2.1,3.8,3.1,3.8c2.8,0.1,18.1,0.1,20.9,0c1.1,0,1.9-1,3.1-3.8
			c0.5-1.2,1.2-2.1,2.2-2.1"/>
		<path class="st2" d="M49.9,41.5c-4.5,0-9,0-10.5-0.1c-1.2-0.1-2.1-1.1-3.2-3.9c-0.3-0.8-1-2-2.1-2v-0.2c0.9,0,1.7,0.8,2.3,2.2
			c1.1,2.7,1.9,3.7,3,3.8c2.8,0.1,18.1,0.1,20.9,0c1.1,0,1.9-1.1,3-3.8c0.6-1.4,1.4-2.2,2.3-2.2v0.2c-1.1,0-1.8,1.3-2.1,2
			c-1.1,2.8-2.1,3.9-3.2,3.9C58.9,41.5,54.4,41.5,49.9,41.5z"/>
	</g>
	<path class="st3" d="M37.4,24.5c0,3.7,5.7,6.7,12.7,6.7l0,0c7,0,12.4-3,12.7-6.7c0.5-6.5-5-9.3-5-9.3c0.3,1.5-2.3,3.2-2.3,3.2
		c-0.3-4.2-5.4-8.7-10.6-8.6c0,0,2.1,1.2,1.5,6c-0.6,3.4-1.9,4.7-1.9,4.7c0-3.3-4.8-4.5-4.8-4.5C40.9,20,37.4,21.1,37.4,24.5z"/>
	<path class="st4" d="M57.9,26.1c0,2.8-3.5,5.2-7.9,5.1c-4.2-0.1-7.2-0.6-6.8-3.2c-0.3-2.7,1.9-4.3,4-6.9l1.7,1.8
		c1.3-2.3,0.4-5.8,0.4-5.8C50.4,17.5,57.9,21.2,57.9,26.1z"/>
	<path class="st5" d="M47.9,24.8c-0.9,1.9-1.3,2.5-1.3,3.8c0,1.4,1.1,2.8,3.5,2.8l0,0c2.5,0,4.5-1.3,4.5-2.8
		c0.7-4.2-3.4-6.2-3.4-6.2c0.6,2.1-1.1,3.9-1.1,3.9C49.4,25.6,47.9,24.8,47.9,24.8z"/>
	<g>
		<path class="st2" d="M33.2,34.8c0,0.3,0.3,0.6,0.6,0.6h15.7v-1.2H33.8C33.4,34.2,33.2,34.5,33.2,34.8z"/>
		<path class="st2" d="M49.6,35.5H33.8c-0.4,0-0.7-0.3-0.7-0.7c0-0.4,0.3-0.7,0.7-0.7h15.8V35.5z M33.8,34.3c-0.3,0-0.5,0.2-0.5,0.5
			c0,0.3,0.2,0.5,0.5,0.5h15.6v-0.9H33.8z"/>
	</g>
	<g>
		<path class="st2" d="M66.8,34.8c0-0.3-0.3-0.6-0.6-0.6H46.8v1.2h19.5C66.6,35.4,66.8,35.1,66.8,34.8z"/>
		<path class="st2" d="M66.2,35.5H46.6v-1.4h19.6c0.4,0,0.7,0.3,0.7,0.7C67,35.2,66.6,35.5,66.2,35.5z M46.9,35.3h19.4
			c0.3,0,0.5-0.2,0.5-0.5c0-0.3-0.2-0.5-0.5-0.5H46.9V35.3z"/>
	</g>
	<g>
		<path class="st6" d="M40.7,29.2c0,1,0.8,1.7,1.7,1.7h12.5v-3.5H42.4C41.4,27.5,40.7,28.3,40.7,29.2z"/>
		<path class="st2" d="M54.6,27.8v2.8H42.4c-0.8,0-1.4-0.6-1.4-1.4c0-0.8,0.6-1.4,1.4-1.4H54.6 M54.9,27.5H42.4
			c-1,0-1.7,0.8-1.7,1.7s0.8,1.7,1.7,1.7h12.5V27.5L54.9,27.5z"/>
	</g>
	<g>
		<circle class="st6" cx="54.9" cy="29.2" r="1.7"/>
		<path class="st2" d="M54.9,27.8c0.8,0,1.4,0.6,1.4,1.4c0,0.8-0.6,1.4-1.4,1.4c-0.8,0-1.4-0.6-1.4-1.4
			C53.5,28.5,54.1,27.8,54.9,27.8 M54.9,27.5c-1,0-1.7,0.8-1.7,1.7c0,1,0.8,1.7,1.7,1.7c1,0,1.7-0.8,1.7-1.7
			C56.6,28.3,55.9,27.5,54.9,27.5L54.9,27.5z"/>
	</g>
	<g>
		<circle class="st6" cx="58.4" cy="29.2" r="1.7"/>
		<path class="st2" d="M58.4,27.8c0.8,0,1.4,0.6,1.4,1.4c0,0.8-0.6,1.4-1.4,1.4c-0.8,0-1.4-0.6-1.4-1.4C57,28.5,57.6,27.8,58.4,27.8
			 M58.4,27.5c-1,0-1.7,0.8-1.7,1.7c0,1,0.8,1.7,1.7,1.7s1.7-0.8,1.7-1.7C60.1,28.3,59.3,27.5,58.4,27.5L58.4,27.5z"/>
	</g>
	<g>
		<circle class="st6" cx="56.6" cy="32.3" r="1.7"/>
		<path class="st2" d="M56.6,30.9c0.8,0,1.4,0.6,1.4,1.4c0,0.8-0.6,1.4-1.4,1.4c-0.8,0-1.4-0.6-1.4-1.4
			C55.2,31.6,55.9,30.9,56.6,30.9 M56.6,30.6c-1,0-1.7,0.8-1.7,1.7c0,1,0.8,1.7,1.7,1.7c1,0,1.7-0.8,1.7-1.7
			C58.4,31.4,57.6,30.6,56.6,30.6L56.6,30.6z"/>
	</g>
	<g>
		<circle class="st6" cx="60.1" cy="32.3" r="1.7"/>
		<path class="st2" d="M60.1,30.9c0.8,0,1.4,0.6,1.4,1.4c0,0.8-0.6,1.4-1.4,1.4c-0.8,0-1.4-0.6-1.4-1.4
			C58.7,31.6,59.3,30.9,60.1,30.9 M60.1,30.6c-1,0-1.7,0.8-1.7,1.7c0,1,0.8,1.7,1.7,1.7s1.7-0.8,1.7-1.7
			C61.8,31.4,61.1,30.6,60.1,30.6L60.1,30.6z"/>
	</g>
	<path class="st2" d="M60.2,33.2v-0.3c0.3,0,0.5-0.2,0.5-0.5c0-0.3-0.2-0.5-0.5-0.5v-0.3c0.5,0,0.9,0.4,0.9,0.9
		C61.1,32.8,60.7,33.2,60.2,33.2z"/>
	<path class="st2" d="M56.6,33.2v-0.3c0.3,0,0.5-0.2,0.5-0.5c0-0.3-0.2-0.5-0.5-0.5v-0.3c0.5,0,0.9,0.4,0.9,0.9
		C57.5,32.8,57.1,33.2,56.6,33.2z"/>
	<path class="st2" d="M54.9,30.1v-0.3c0.3,0,0.5-0.2,0.5-0.5c0-0.3-0.2-0.5-0.5-0.5v-0.3c0.5,0,0.9,0.4,0.9,0.9
		C55.8,29.7,55.4,30.1,54.9,30.1z"/>
	<path class="st2" d="M58.4,30.1v-0.3c0.3,0,0.5-0.2,0.5-0.5c0-0.3-0.2-0.5-0.5-0.5v-0.3c0.5,0,0.9,0.4,0.9,0.9
		C59.2,29.7,58.8,30.1,58.4,30.1z"/>
	<g>
		<path class="st6" d="M38.9,32.3c0,1,0.8,1.7,1.7,1.7h12.5v-3.5H40.7C39.7,30.6,38.9,31.4,38.9,32.3z"/>
		<path class="st2" d="M52.8,30.9v2.8H40.7c-0.8,0-1.4-0.6-1.4-1.4c0-0.8,0.6-1.4,1.4-1.4H52.8 M53.2,30.6H40.7
			c-1,0-1.7,0.8-1.7,1.7s0.8,1.7,1.7,1.7h12.5V30.6L53.2,30.6z"/>
	</g>
	<g>
		<circle class="st6" cx="53.2" cy="32.3" r="1.7"/>
		<path class="st2" d="M53.2,30.9c0.8,0,1.4,0.6,1.4,1.4c0,0.8-0.6,1.4-1.4,1.4c-0.8,0-1.4-0.6-1.4-1.4
			C51.8,31.6,52.4,30.9,53.2,30.9 M53.2,30.6c-1,0-1.7,0.8-1.7,1.7c0,1,0.8,1.7,1.7,1.7c1,0,1.7-0.8,1.7-1.7
			C54.9,31.4,54.1,30.6,53.2,30.6L53.2,30.6z"/>
	</g>
	<rect x="48.6" y="32.7" class="st2" width="1.9" height="0.3"/>
	<rect x="40.7" y="32.7" class="st2" width="6.3" height="0.3"/>
	<rect x="49.7" y="29.6" class="st2" width="2.3" height="0.3"/>
	<rect x="42.2" y="29.6" class="st2" width="5.9" height="0.3"/>
	<rect x="45.1" y="31.6" class="st2" width="4.3" height="0.3"/>
	<path class="st2" d="M53.2,33.2v-0.3c0.3,0,0.5-0.2,0.5-0.5c0-0.3-0.2-0.5-0.5-0.5v-0.3c0.5,0,0.9,0.4,0.9,0.9
		C54,32.8,53.7,33.2,53.2,33.2z"/>
</g>
<path class="st2" d="M83.5,26.2h1.4h1.5h3.4v-3.7l-5.9-5.9l3.3-3.3l2.6,2.6v-0.1h7.4v11.1h-2V32h-8.8v0v2.9h-5.8v-5.8
	C80.6,27.5,81.9,26.2,83.5,26.2z"/>
<g>
	<path class="st8" d="M81.7,11.1c-0.9,0.9-0.9,2.4,0,3.3l2.5,2.5l3.3-3.3L85,11.1C84.1,10.2,82.6,10.2,81.7,11.1z"/>
</g>
<rect x="84.7" y="16.2" transform="matrix(0.7071 -0.7071 0.7071 0.7071 13.8786 66.3178)" class="st9" width="4.6" height="0.4"/>
<rect x="84.9" y="16.4" transform="matrix(0.7071 -0.7071 0.7071 0.7071 13.7712 66.5779)" class="st2" width="4.6" height="0.4"/>
<rect x="85.2" y="16.8" transform="matrix(0.7071 -0.7071 0.7071 0.7071 13.6432 66.887)" class="st10" width="4.6" height="0.4"/>
<line class="st2" x1="86.2" y1="18.9" x2="89.5" y2="15.6"/>
<rect x="85.8" y="17.3" transform="matrix(0.7071 -0.7071 0.7071 0.7071 13.4081 67.4544)" class="st9" width="4.6" height="0.4"/>
<rect x="86.1" y="17.6" transform="matrix(0.7071 -0.7071 0.7071 0.7071 13.2773 67.7703)" class="st10" width="4.6" height="0.4"/>
<rect x="86.4" y="18" transform="matrix(0.7071 -0.7071 0.7071 0.7071 13.1461 68.0864)" class="st9" width="4.6" height="0.4"/>
<rect x="89.7" y="15.8" class="st2" width="1.6" height="6.6"/>
<path class="st2" d="M97.9,6.7c-0.1,0-0.1,0-0.2-0.1c-0.1-0.1-0.1-0.2,0-0.3l0.9-0.8c0.1-0.1,0.2-0.1,0.3,0c0.1,0.1,0.1,0.2,0,0.3
	L98,6.7C98,6.7,97.9,6.7,97.9,6.7z"/>
<path class="st2" d="M91.3,19.6c0-1.6,1.3-2.9,2.9-2.9h2.9v2.9v2.9v2.9h-5.8V19.6z"/>
<g>
	<path class="st2" d="M85.5,29.1c0,1.6,1.3,2.9,2.9,2.9h2.9v-5.8h-2.9C86.8,26.3,85.5,27.5,85.5,29.1z"/>
	<path class="st2" d="M97.1,29.1c0,1.6-1.3,2.9-2.9,2.9h-2.9v-2.9v-2.9v-2.9h5.8V29.1z"/>
</g>
<rect x="96.1" y="22.6" class="st5" width="0.4" height="2.8"/>
<rect x="94.7" y="22.6" class="st5" width="0.4" height="2.8"/>
<rect x="93.3" y="22.6" class="st5" width="0.4" height="2.8"/>
<rect x="91.9" y="22.6" class="st5" width="0.4" height="2.8"/>
<rect x="91.3" y="22.5" class="st5" width="5.9" height="0.4"/>
<rect x="91.3" y="25.4" class="st10" width="5.9" height="0.4"/>
<rect x="91.3" y="25" class="st9" width="5.9" height="0.4"/>
<rect x="91.3" y="25.8" class="st9" width="5.9" height="0.4"/>
<g>
	
		<rect x="91.1" y="35.4" transform="matrix(-4.458319e-11 1 -1 -4.458319e-11 132.2898 -58.9251)" class="st11" width="9" height="2.5"/>
	<path class="st2" d="M97.1,41.4h-2.9V32h2.9V41.4z M94.6,41h2v-8.5h-2V41z"/>
</g>
<g>
	
		<rect x="83.4" y="35.4" transform="matrix(-4.458319e-11 1 -1 -4.458319e-11 124.5348 -51.1701)" class="st11" width="9" height="2.5"/>
	<path class="st2" d="M89.3,41.4h-2.9V32h2.9V41.4z M86.8,41h2v-8.5h-2V41z"/>
</g>
<g>
	
		<rect x="86.6" y="32.2" transform="matrix(-1 -4.514090e-11 4.514090e-11 -1 183.4599 66.8689)" class="st11" width="10.2" height="2.5"/>
	<path class="st2" d="M97.1,34.9H86.4V32h10.7V34.9z M86.8,34.5h9.8v-2h-9.8V34.5z"/>
</g>
<g>
	<path class="st2" d="M74.8,38.6c0,1.6,1.3,2.9,2.9,2.9h2.9v-5.8h-2.9C76.1,35.7,74.8,37,74.8,38.6z"/>
	<path class="st2" d="M86.4,38.6c0,1.6-1.3,2.9-2.9,2.9h-2.9v-2.9v-2.9v-2.9h5.8V38.6z"/>
</g>
<path class="st5" d="M85.8,31.3l-0.2-0.2c-0.4-0.4-0.9-0.7-1.4-0.7c-0.6,0-1.1,0.2-1.4,0.7l-0.2,0.2l-0.2-0.2
	c-0.5-0.5-1.2-0.8-1.9-0.6L80.4,30c0.8-0.2,1.6,0,2.2,0.6c0.4-0.4,1-0.6,1.6-0.6c0.6,0,1.2,0.2,1.6,0.6c0.4-0.4,1-0.6,1.6-0.6v0.4
	c-0.6,0-1.1,0.2-1.4,0.7L85.8,31.3z"/>
<path class="st2" d="M89.6,15.7c-0.5,0-1-0.4-1-1s0.4-1,1-1c0.5,0,1,0.4,1,1S90.1,15.7,89.6,15.7z M89.6,14.2
	c-0.3,0-0.5,0.2-0.5,0.5s0.2,0.5,0.5,0.5c0.3,0,0.5-0.2,0.5-0.5S89.8,14.2,89.6,14.2z"/>
<path class="st2" d="M95.5,6.9c0,0-0.1,0-0.1,0c-0.1-0.1-0.1-0.2-0.1-0.3l0.6-1.1c0.1-0.1,0.2-0.1,0.3-0.1c0.1,0.1,0.1,0.2,0.1,0.3
	l-0.6,1.1C95.7,6.8,95.6,6.9,95.5,6.9z"/>
<path class="st2" d="M94.3,6.4C94.3,6.4,94.3,6.4,94.3,6.4c-0.1,0-0.2-0.1-0.2-0.2l0.1-1.2c0-0.1,0.1-0.2,0.2-0.2
	c0.1,0,0.2,0.1,0.2,0.2l-0.1,1.2C94.5,6.3,94.4,6.4,94.3,6.4z"/>
<path class="st2" d="M93.5,7c-0.1,0-0.1,0-0.2-0.1l-0.9-1c-0.1-0.1-0.1-0.2,0-0.3c0.1-0.1,0.2-0.1,0.3,0l0.9,1
	c0.1,0.1,0.1,0.2,0,0.3C93.6,6.9,93.5,7,93.5,7z"/>
<path class="st2" d="M98.4,6.7c-0.1,0-0.1,0-0.2-0.1l-0.9-1c-0.1-0.1-0.1-0.2,0-0.3c0.1-0.1,0.2-0.1,0.3,0l0.9,1
	c0.1,0.1,0.1,0.2,0,0.3C98.5,6.7,98.4,6.7,98.4,6.7z"/>
<path class="st2" d="M91.4,7c-0.1,0-0.1,0-0.2-0.1c-0.1-0.1-0.1-0.2,0-0.3L91.8,6c0.1-0.1,0.2-0.1,0.3,0c0.1,0.1,0.1,0.2,0,0.3
	l-0.6,0.6C91.5,7,91.4,7,91.4,7z"/>
<path class="st2" d="M90.5,6.7C90.5,6.7,90.5,6.7,90.5,6.7c-0.2,0-0.2-0.2-0.2-0.3l0.3-1c0-0.1,0.2-0.2,0.3-0.2
	c0.1,0,0.2,0.2,0.2,0.3l-0.3,1C90.7,6.6,90.6,6.7,90.5,6.7z"/>
<path class="st2" d="M89.7,6.7c-0.1,0-0.2-0.1-0.2-0.2l-0.1-1c0-0.1,0.1-0.2,0.2-0.2c0.1,0,0.2,0.1,0.2,0.2l0.1,1
	C89.9,6.6,89.8,6.7,89.7,6.7C89.7,6.7,89.7,6.7,89.7,6.7z"/>
<path class="st2" d="M88.7,7c-0.1,0-0.1,0-0.1-0.1l-0.9-0.8c-0.1-0.1-0.1-0.2,0-0.3c0.1-0.1,0.2-0.1,0.3,0l0.9,0.8
	c0.1,0.1,0.1,0.2,0,0.3C88.8,7,88.8,7,88.7,7z"/>
<path class="st2" d="M88.2,7.8C88.1,7.8,88.1,7.8,88.2,7.8l-1-0.3c-0.1,0-0.2-0.1-0.2-0.3c0-0.1,0.1-0.2,0.3-0.2l1,0.2
	c0.1,0,0.2,0.1,0.2,0.3C88.3,7.8,88.3,7.8,88.2,7.8z"/>
<path class="st2" d="M87.2,9.2C87.1,9.2,87,9.1,87,9c0-0.1,0-0.2,0.2-0.3l1.1-0.3c0.1,0,0.2,0,0.3,0.2c0,0.1,0,0.2-0.2,0.3L87.2,9.2
	C87.2,9.2,87.2,9.2,87.2,9.2z"/>
<path class="st2" d="M87.4,10.5c-0.1,0-0.2,0-0.2-0.1c-0.1-0.1,0-0.2,0.1-0.3l1.3-0.7c0.1-0.1,0.2,0,0.3,0.1c0.1,0.1,0,0.2-0.1,0.3
	L87.4,10.5C87.5,10.5,87.5,10.5,87.4,10.5z"/>
<path class="st2" d="M88.1,11.6c-0.1,0-0.1,0-0.2-0.1c-0.1-0.1-0.1-0.2,0-0.3l0.8-0.6c0.1-0.1,0.2-0.1,0.3,0c0.1,0.1,0.1,0.2,0,0.3
	l-0.8,0.6C88.2,11.6,88.1,11.6,88.1,11.6z"/>
<path class="st2" d="M88.8,12.8c-0.1,0-0.1,0-0.2-0.1c-0.1-0.1-0.1-0.2,0-0.3l0.9-0.9c0.1-0.1,0.2-0.1,0.3,0c0.1,0.1,0.1,0.2,0,0.3
	l-0.9,0.9C88.9,12.8,88.8,12.8,88.8,12.8z"/>
<polygon class="st2" points="96.2,22 90.4,22 91.7,16.9 95.2,16.9 "/>
<circle class="st12" cx="92.8" cy="19.2" r="1.6"/>
<polygon class="st13" points="91.7,16.9 91.7,16.7 95.1,16.7 96.2,20.6 96.2,20.6 95.2,16.9 "/>
<polygon class="st14" points="96.2,20.6 95.1,16.7 91.7,16.7 90.5,21.1 90.1,21.1 91.4,16.2 95.5,16.2 96.7,20.7 96.7,21.1 
	96.4,21.1 96.2,20.3 96.4,21.1 96.4,21.1 96.2,20.6 "/>
<g>
	<path class="st8" d="M90.5,11.9c0.7-0.9,1.7-1.4,2.9-1.4c1.2,0,2.2,0.6,2.9,1.4c0.5,0.6,0.8,1.4,0.8,2.3v1.6h-7.4v-1.6
		C89.7,13.3,90,12.5,90.5,11.9z"/>
</g>
<g>
	<path class="st2" d="M92.3,13.2c0,0.3-0.2,0.5-0.5,0.5c-0.3,0-0.5-0.2-0.5-0.5s0.2-0.5,0.5-0.5C92.1,12.8,92.3,13,92.3,13.2z"/>
	<path class="st2" d="M94.5,13.2c0,0.3-0.2,0.5-0.5,0.5c-0.3,0-0.5-0.2-0.5-0.5s0.2-0.5,0.5-0.5C94.3,12.8,94.5,13,94.5,13.2z"/>
</g>
<path class="st2" d="M93,14.8c-0.4,0-0.9-0.1-1.4-0.2c-0.1,0-0.2-0.2-0.1-0.3c0-0.1,0.2-0.2,0.3-0.1c0.8,0.3,1.6,0.3,2.4,0
	c0.1,0,0.2,0,0.3,0.1c0,0.1,0,0.2-0.1,0.3C93.9,14.8,93.4,14.8,93,14.8z"/>
<polygon class="st9" points="96,21.5 96,21.5 96,21.5 "/>
<polygon class="st13" points="96.2,20.6 95.8,18.9 96.2,20.6 "/>
<polygon class="st14" points="95.1,16.7 95.7,18.6 95.7,18.6 "/>
<polygon class="st2" points="95.7,18.6 95.7,18.6 95.7,18.6 "/>
<path class="st9" d="M89.7,20.6v0.9h1.2l0.1-0.4l0.1-0.4l0.1-0.4h0l0.1-0.4l0.7-2.6h2.7l0.9,3.1h0l0.2,0.7l0.1,0.2l0.1,0.4l0,0l0,0
	h1.1v-0.9l-1.4-4.8h-4.7L89.7,20.6L89.7,20.6z M90.2,20.7l1.2-4.4h4.1l1.3,4.4v0.4h-0.3l-0.7-2.4l0.1,0.3l0.5,1.7l-1.1-3.9h-3.4
	l-1.1,3.9h0l-0.1,0.4h-0.1h-0.3V20.7z"/>
<polygon class="st14" points="90.2,20.6 91.4,16.2 95.5,16.2 96.7,20.6 97.2,20.6 97.2,21.1 96.7,21.1 96.5,21.1 96.4,21.1 
	95.1,16.7 91.7,16.7 90.7,20.6 90.7,20.6 90.6,21.1 90.5,21.1 90.4,21.1 90.2,21.1 89.7,21.1 89.7,20.6 "/>
<path class="st15" d="M83.5,41.5h-2.9h-2.9c-1.4,0-2.6-1.1-2.9-2.5h11.5C86.1,40.4,84.9,41.5,83.5,41.5z"/>
<path class="st2" d="M97.2,26.2V36c-5.4,0-9.8-4.4-9.8-9.8H97.2z"/>
<path class="st12" d="M89,13.9c-0.1,0-0.2,0-0.3-0.1c-0.5-0.4-0.9-1-1.4-1.7C86.7,11.1,86,9.6,86,8c0-1.5,1-2.9,2.5-3.4
	c0.4-0.1,0.8-0.2,1.2-0.2l0.1,0c0.7,0,1.4,0.3,2,0.7L92,5c0,0,0,0,0,0c0.5-0.6,1.2-0.9,2-0.9c0,0,0.1,0,0.2,0c0.8,0,1.6,0.3,2.2,0.8
	c0.4-0.4,1.1-0.6,1.7-0.5c1,0.1,1.9,0.9,1.9,2.2c0,0.2-0.2,0.4-0.5,0.4c-0.2,0-0.4-0.2-0.4-0.5c0-0.9-0.7-1.2-1.1-1.3
	c-0.4,0-0.9,0.1-1.2,0.5c-0.1,0.1-0.2,0.2-0.3,0.2c-0.1,0-0.3,0-0.4-0.2c-0.5-0.6-1.2-0.9-1.9-0.9c-0.1,0-0.1,0-0.2,0
	c-0.7,0-1.3,0.3-1.7,0.9c-0.1,0.1-0.2,0.2-0.3,0.2c-0.1,0-0.3,0-0.4-0.2c-0.1-0.1-0.1-0.2-0.2-0.2l-0.1-0.1c-0.5-0.3-1-0.5-1.5-0.5
	l-0.1,0c-0.3,0-0.6,0.1-0.9,0.2c-1.1,0.4-1.9,1.4-1.9,2.6c0,1.5,0.6,2.8,1.1,3.6c0.4,0.7,0.8,1.2,1.2,1.5c0.2,0.2,0.2,0.4,0.1,0.6
	C89.2,13.8,89.1,13.9,89,13.9z"/>
<g>
	<path class="st16" d="M89.4,6.4c0.2-0.1,0.4-0.1,0.6-0.1c0.4,0,0.7,0.1,1,0.3c0,0,0,0,0,0c0.4,0.2,0.6,1.2,1.3,1.2
		c1.4,0,0.7-1.6,2.1-1.6c0.1,0,1.3-0.1,1.6,1.5c0.1,0.5,0.9,1,1.3,0.1c0,0,0.8-1.5,0.8-1.5s1.4,1.5,1.4,3.6c0,2.3-1.9,2.8-2.6,2.8
		c-0.5,0-0.7-1-1.3-1.2c-0.3-0.1-0.5,0.5-1.1,0.4c-0.4,0-0.5-0.7-1-0.7c-0.7,0-0.8,0.8-1.1,0.8c-0.6,0.1-0.6-0.5-1.2-0.4
		c-0.3,0-0.7,0.8-1,0.8c-0.2,0-2.1-2-2.1-4.4C88.2,7.2,88.7,6.6,89.4,6.4z"/>
	<path class="st17" d="M96.9,13c-0.4,0-0.6-0.3-0.8-0.7c-0.2-0.3-0.3-0.5-0.6-0.6c0,0-0.1,0.1-0.2,0.1c-0.2,0.1-0.5,0.4-0.9,0.3
		c-0.3,0-0.5-0.3-0.7-0.4c-0.1-0.1-0.2-0.3-0.3-0.3c0,0,0,0,0,0c-0.2,0-0.3,0.2-0.5,0.4c-0.1,0.2-0.3,0.4-0.5,0.4
		c-0.4,0-0.6-0.1-0.8-0.3c-0.1-0.1-0.2-0.2-0.4-0.2c-0.1,0-0.2,0.2-0.3,0.3c-0.2,0.2-0.4,0.5-0.7,0.5c-0.5,0-2.4-2.4-2.4-4.7
		c0-0.8,0.6-1.6,1.4-1.9l0,0C89.5,6,89.7,6,90,6c0.4,0,0.8,0.1,1.1,0.4c0.2,0.1,0.3,0.3,0.4,0.5c0.2,0.4,0.4,0.6,0.7,0.6
		c0.5,0,0.6-0.2,0.7-0.6s0.4-1,1.3-1c0,0,0,0,0,0c0.4-0.1,1.6,0.1,1.9,1.7c0,0.2,0.2,0.3,0.3,0.4c0.2,0,0.3-0.2,0.4-0.3l0.1-0.2
		c0.2-0.4,0.7-1.3,0.7-1.3L98,5.8l0.3,0.3c0.1,0.1,1.5,1.6,1.5,3.8C99.7,12.4,97.6,13,96.9,13C96.9,13,96.9,13,96.9,13z M95.5,11.2
		c0,0,0.1,0,0.1,0c0.4,0.1,0.7,0.5,0.9,0.8c0.1,0.1,0.2,0.4,0.3,0.4l0,0c0,0,2.3-0.1,2.3-2.5c0-1.4-0.7-2.5-1-3
		c-0.3,0.6-0.5,0.9-0.6,1.1l0,0c-0.3,0.7-0.8,0.7-1,0.6c-0.4-0.1-0.8-0.4-0.8-0.8c-0.3-1.4-1.3-1.3-1.3-1.3c-0.5,0-0.6,0.2-0.8,0.6
		c-0.2,0.4-0.4,1-1.3,1c-0.6,0-0.9-0.5-1.2-0.9c-0.1-0.1-0.2-0.3-0.3-0.3l0,0c-0.3-0.2-0.5-0.3-0.8-0.3c-0.2,0-0.4,0-0.5,0.1h0
		c-0.6,0.2-1,0.7-1,1.3c0,2,1.4,3.7,1.8,4.1c0.1-0.1,0.2-0.2,0.2-0.2c0.2-0.2,0.4-0.5,0.7-0.5c0.4,0,0.6,0.2,0.8,0.3
		c0.1,0.1,0.2,0.2,0.4,0.1c0,0,0.1-0.1,0.1-0.2c0.2-0.3,0.4-0.7,1-0.7c0,0,0,0,0,0c0.4,0,0.6,0.3,0.8,0.5c0.1,0.1,0.2,0.2,0.2,0.2
		c0.2,0,0.3-0.1,0.5-0.2C95.1,11.3,95.3,11.2,95.5,11.2z M89.4,6.4L89.4,6.4L89.4,6.4z"/>
</g>
<g>
	<path class="st18" d="M97,12.1c0.4,0,1.9-0.3,1.9-2.2c0-1-0.4-1.9-0.7-2.4C97.9,7.7,97.8,8,97.8,8c-0.4,0.7-0.9,0.8-1.2,0.8
		c-0.6,0-1.1-0.5-1.2-1c-0.2-0.9-0.7-1-1-1l0,0l-0.1,0c-0.3,0-0.3,0.1-0.5,0.5c-0.2,0.4-0.5,1.2-1.6,1.2c-0.8,0-1.2-0.6-1.4-1
		c-0.1-0.1-0.1-0.2-0.2-0.3l0,0l0,0c-0.2-0.1-0.4-0.2-0.6-0.2l0,0c-0.1,0-0.3,0-0.4,0.1c-0.4,0.1-0.8,0.5-0.8,1c0,1.6,1,3.1,1.5,3.6
		c0,0,0,0,0,0c0.2-0.3,0.5-0.6,0.9-0.6c0,0,0.1,0,0.1,0c0.5,0,0.7,0.2,0.9,0.4c0,0,0,0,0,0c0.2-0.3,0.5-0.8,1.2-0.8l0,0
		c0.5,0,0.8,0.4,1,0.6c0,0,0.1,0.1,0.1,0.1c0.1,0,0.1-0.1,0.2-0.1c0.2-0.1,0.4-0.3,0.7-0.3c0.1,0,0.2,0,0.2,0c0.6,0.1,0.9,0.6,1.1,1
		C96.8,11.9,96.9,12,97,12.1"/>
	<path class="st15" d="M96.9,12.3L96.9,12.3c-0.1-0.2-0.2-0.2-0.2-0.3c-0.2-0.4-0.5-0.8-1-0.9c-0.1,0-0.1,0-0.2,0
		c-0.2,0-0.4,0.1-0.6,0.2c-0.1,0.1-0.2,0.1-0.3,0.2l-0.1,0l-0.1-0.1c0,0-0.1-0.1-0.1-0.1c-0.2-0.2-0.4-0.5-0.8-0.5
		c-0.6,0-0.9,0.4-1.1,0.7l-0.1,0.2l-0.2-0.1c-0.2-0.1-0.4-0.3-0.8-0.3l-0.1,0c-0.3,0-0.6,0.3-0.8,0.5l-0.2,0.2l-0.2-0.2
		c-0.2-0.2-1.6-1.8-1.6-3.8c0-0.6,0.5-1.1,0.9-1.3c0.2-0.1,0.3-0.1,0.5-0.1c0.3,0,0.6,0.1,0.8,0.2L90.8,7C90.9,7,90.9,7.1,91,7.2
		c0.2,0.4,0.6,0.9,1.3,0.9c0.9,0,1.2-0.6,1.4-1c0.2-0.4,0.3-0.6,0.7-0.6l0.1,0c0.3,0,1,0.1,1.2,1.2c0.1,0.5,0.6,0.9,1,0.9
		c0.2,0,0.7-0.1,1-0.7c0,0,0.2-0.3,0.3-0.6L98.1,7l0.2,0.3c0.3,0.6,0.7,1.5,0.7,2.6c0,2.1-1.7,2.4-2.1,2.5L96.9,12.3z M95.5,10.7
		c0.1,0,0.2,0,0.3,0c0.6,0.2,1,0.7,1.2,1c0,0,0.1,0.1,0.1,0.1c0.5-0.1,1.6-0.5,1.6-2c0-0.8-0.2-1.5-0.5-2C98,8,98,8.1,98,8.1
		c-0.4,0.8-1,0.9-1.4,0.9c-0.7,0-1.3-0.5-1.5-1.2C95,7.1,94.6,7,94.4,7l-0.1,0c-0.1,0-0.1,0-0.3,0.3c-0.2,0.5-0.5,1.3-1.8,1.3
		c-0.9,0-1.4-0.7-1.6-1.1c0-0.1-0.1-0.2-0.1-0.2l-0.1,0c-0.1-0.1-0.3-0.1-0.5-0.1c-0.1,0-0.2,0-0.3,0.1C89.3,7.3,89,7.6,89,8
		c0,1.3,0.7,2.6,1.3,3.3c0.2-0.2,0.5-0.5,0.9-0.5c0.5,0,0.8,0.1,1,0.3c0.2-0.3,0.6-0.7,1.3-0.7c0.6,0,1,0.4,1.2,0.7c0,0,0,0,0,0
		C94.8,10.9,95.1,10.7,95.5,10.7z"/>
</g>
<path class="st12" d="M97.3,11.1c0.4-0.2,0.6-0.6,0.6-1.2c0-0.2,0-0.4,0-0.6c-0.5,0.4-1,0.4-1.3,0.4c-1,0-1.9-0.7-2.1-1.7
	c0,0,0-0.1,0-0.1c-0.3,0.6-0.9,1.4-2.2,1.4c-1.3,0-1.9-1-2.2-1.4c0,0,0,0,0-0.1c0,0-0.1,0-0.1,0h0c0,0,0,0-0.1,0
	c-0.1,0-0.2,0.1-0.2,0.2c0,0.9,0.4,1.7,0.8,2.3c0.2-0.1,0.4-0.2,0.7-0.2c0.1,0,0.1,0,0.2,0c0.3,0,0.5,0.1,0.7,0.1
	c0.3-0.3,0.8-0.5,1.4-0.5l0.1,0c0.5,0,0.9,0.2,1.2,0.5c0.2-0.1,0.5-0.2,0.8-0.2c0.2,0,0.3,0,0.4,0.1C96.6,10.2,97.1,10.7,97.3,11.1z
	"/>
<path class="st2" d="M97.8,15.7c-0.5,0-1-0.4-1-1s0.4-1,1-1s1,0.4,1,1S98.3,15.7,97.8,15.7z M97.8,14.2c-0.3,0-0.5,0.2-0.5,0.5
	s0.2,0.5,0.5,0.5s0.5-0.2,0.5-0.5S98.1,14.2,97.8,14.2z"/>
<path class="st5" d="M90.3,11.9c-0.1,0-0.1,0-0.2-0.1c-0.1-0.1-0.1-0.3,0-0.4l0.1-0.1c0.1-0.1,0.3-0.1,0.4,0c0.1,0.1,0.1,0.3,0,0.4
	l-0.3-0.2l0.2,0.2C90.4,11.9,90.3,11.9,90.3,11.9z M96.5,11.8c-0.1,0-0.2,0-0.2-0.1c0,0-0.1-0.1-0.1-0.1c-0.1-0.1-0.1-0.3,0-0.4
	c0.1-0.1,0.3-0.1,0.4,0c0,0,0.1,0.1,0.1,0.1c0.1,0.1,0.1,0.3,0,0.4C96.6,11.7,96.6,11.8,96.5,11.8z M92.2,11.6c-0.1,0-0.1,0-0.2-0.1
	l-0.1-0.1c-0.1-0.1-0.2-0.3-0.1-0.4c0.1-0.1,0.3-0.2,0.4-0.1l0.1,0.1c0.1,0.1,0.2,0.3,0.1,0.4C92.3,11.6,92.3,11.6,92.2,11.6z
	 M94.6,11.6c-0.1,0-0.2-0.1-0.3-0.2c-0.1-0.2,0-0.3,0.2-0.4c0,0,0,0,0.1,0c0.1-0.1,0.3-0.1,0.4,0.1c0.1,0.1,0.1,0.3-0.1,0.4
	c-0.1,0-0.1,0.1-0.2,0.1C94.7,11.6,94.6,11.6,94.6,11.6z M91.1,11.3c-0.1,0-0.3-0.1-0.3-0.2c0-0.2,0.1-0.3,0.2-0.3c0,0,0.1,0,0.1,0
	l0.1,0.3v0.3C91.2,11.3,91.2,11.3,91.1,11.3C91.1,11.3,91.1,11.3,91.1,11.3z M95.7,11.2C95.6,11.2,95.6,11.2,95.7,11.2
	c-0.1,0-0.1,0-0.2,0c-0.2,0-0.3-0.1-0.3-0.3c0-0.2,0.2-0.3,0.3-0.3c0.1,0,0.1,0,0.2,0c0.2,0,0.3,0.2,0.2,0.4
	C95.9,11.1,95.8,11.2,95.7,11.2z M92.8,11.1c-0.1,0-0.2-0.1-0.3-0.1c-0.1-0.1,0-0.3,0.1-0.4c0.1,0,0.1-0.1,0.2-0.1
	c0.1-0.1,0.3,0,0.4,0.2s0,0.3-0.2,0.4c0,0-0.1,0-0.1,0.1C92.9,11,92.8,11.1,92.8,11.1z M93.9,11c0,0-0.1,0-0.1,0c0,0-0.1,0-0.1,0
	c-0.2-0.1-0.2-0.2-0.2-0.4c0.1-0.2,0.2-0.2,0.4-0.2c0.1,0,0.1,0,0.2,0.1c0.1,0.1,0.2,0.3,0.1,0.4C94.1,10.9,94,11,93.9,11z"/>
<path class="st9" d="M89.7,24.9v1.4h1.8l0.1-0.4l0.1-0.4l0.1-0.4h0l0.1-0.4l0.7-2.6h1.5l0.9,3.1h0l0.2,0.7l0.1,0.2l0.1,0.4l0,0l0,0
	h1.7v-1.3l-0.7,0l-1.2-4.4h-3.6l-1.2,4.4H89.7z M90.8,25.4L92,21h2.9l1.3,4.4v0.4h-0.3l-0.7-2.4l0.1,0.3l0.5,1.7l-1.1-3.9h-2.2
	l-1.1,3.9h0l-0.1,0.4H91h-0.3V25.4z"/>
<polygon class="st14" points="90.8,25.3 92,21 94.9,21 96.1,25.4 96.1,25.8 95.8,25.8 94.5,21.4 92.3,21.4 91.3,25.3 91.3,25.3 
	91.2,25.8 91.1,25.8 91,25.8 90.8,25.8 89.7,25.8 89.7,25.3 "/>
<rect x="88.5" y="26.3" transform="matrix(-1 -4.468704e-11 4.468704e-11 -1 180.7575 56.2916)" class="st2" width="3.7" height="3.7"/>
<path class="st2" d="M97.2,36c-5.4,0-9.8-4.4-9.8-9.8"/>
<path class="st2" d="M88.2,26.2h-1.8c0,5.9,4.8,10.7,10.7,10.7v-1.8"/>
<rect x="96" y="25.3" transform="matrix(-1 -4.521329e-11 4.521329e-11 -1 193.1786 51.1456)" class="st14" width="1.2" height="0.4"/>
<path class="st12" d="M97.2,36.2c-5.5,0-10-4.5-10-10h0.9c0,5,4.1,9.1,9.1,9.1V36.2z"/>
<path class="st9" d="M95.6,29.6l-0.2-0.2C95,29,94.5,28.7,94,28.7s-1.1,0.2-1.4,0.7l-0.2,0.2l-0.2-0.2c-0.5-0.5-1.2-0.8-1.9-0.6
	l-0.1-0.4c0.8-0.2,1.6,0,2.2,0.6c0.4-0.4,1-0.6,1.6-0.6s1.2,0.2,1.6,0.6c0.4-0.4,1-0.6,1.6-0.6v0.4c-0.6,0-1.1,0.2-1.4,0.7
	L95.6,29.6z"/>
<path class="st10" d="M95.6,30.6l-0.2-0.2C95,30,94.5,29.8,94,29.8s-1.1,0.2-1.4,0.7l-0.2,0.2l-0.2-0.2c-0.4-0.5-1-0.7-1.6-0.7
	l0-0.4c0.7-0.1,1.3,0.2,1.8,0.6c0.4-0.4,1-0.6,1.6-0.6s1.2,0.2,1.6,0.6c0.4-0.4,1-0.6,1.6-0.6v0.4c-0.6,0-1.1,0.2-1.4,0.7L95.6,30.6
	z"/>
<path class="st10" d="M97.2,33.9c-4.2,0-7.7-3.4-7.7-7.7h0.4c0,4,3.2,7.2,7.2,7.2V33.9z"/>
<rect x="85.4" y="32" class="st5" width="0.4" height="2.8"/>
<rect x="84" y="32" class="st5" width="0.4" height="2.8"/>
<rect x="82.6" y="32" class="st5" width="0.4" height="2.8"/>
<rect x="81.2" y="32" class="st5" width="0.4" height="2.8"/>
<rect x="80.6" y="32" class="st5" width="5.9" height="0.4"/>
<g>
	<path class="st8" d="M94.8,32c-1.3,0-2.3-1-2.3-2.3v-3.5h4.6v3.5C97.2,30.9,96.1,32,94.8,32z"/>
</g>
<polygon class="st2" points="97.2,21.6 95.8,21.6 95.5,20.5 93.9,20.5 92.5,20.5 92.5,26.3 92.5,26.3 97.2,26.3 "/>
<rect x="80.6" y="34.8" class="st10" width="5.9" height="0.4"/>
<rect x="80.6" y="34.4" class="st9" width="5.9" height="0.4"/>
<rect x="80.6" y="35.3" class="st9" width="5.9" height="0.4"/>
<rect x="92.5" y="22.6" class="st10" width="4.6" height="0.4"/>
<rect x="92.5" y="22.1" class="st9" width="4.6" height="0.4"/>
<rect x="92.5" y="23" class="st9" width="4.6" height="0.4"/>
<rect x="92.5" y="23.8" class="st10" width="4.6" height="0.4"/>
<rect x="92.5" y="23.4" class="st2" width="4.6" height="0.4"/>
<rect x="92.5" y="24.2" class="st2" width="4.6" height="0.4"/>
<rect x="92.5" y="24.6" class="st9" width="4.6" height="0.4"/>
<g>
	<path class="st19" d="M84.3,7.1c0.5,0,0.8,0,1.2,0.1c-0.6,2.1-2.6,3.6-4.9,3.6c-2,0-3.7-1.1-4.6-2.8c0.6,0.2,1.3,0.4,2.4,0.4
		C81.3,8.4,81.3,7.1,84.3,7.1z"/>
	<path class="st2" d="M80.5,11c-3,0-5.4-2.4-5.4-5.4l0-0.3l0.2,0h10.5l0,0.4C85.9,8.6,83.5,11,80.5,11z M75.6,5.7
		c0,2.7,2.2,4.8,4.9,4.8s4.9-2.2,4.9-4.8H75.6z"/>
</g>
<g>
	<path class="st19" d="M77,1.6c-0.4-0.4-0.4-1,0-1.4s1-0.4,1.4,0s0.6,1.9,0.6,1.9S77.4,2,77,1.6z"/>
	<path class="st19" d="M75.2,3.7c-0.5,0.2-1,0.3-1.4-0.1c-0.4-0.4-0.3-1,0.1-1.4c1.1-1,3.4,1.2,3.4,1.2S75.9,3.5,75.2,3.7z"/>
	<path class="st19" d="M85.9,4.2c0.5,0.2,1,0.3,1.4-0.1c0.4-0.4,0.3-1-0.1-1.4c-1.1-1-3.4,1.2-3.4,1.2S85.2,3.9,85.9,4.2z"/>
</g>
<path class="st19" d="M4.2,10.6c0-2,1.7-3.7,3.7-3.7c2,0,3.7,1.7,3.7,3.7v0.2V25H4.2V10.8V10.6z"/>
<path class="st4" d="M0,12.4c0,2,3.5,3.7,7.9,3.7c4.4,0,7.9-1.6,7.9-3.7c0-2-3.5-3.7-7.9-3.7C3.5,8.7,0,10.3,0,12.4z"/>
<g>
	<path class="st20" d="M5.2,11.9c0.7-0.8,1.8-1.4,2.9-1.4c1.2,0,2.2,0.5,2.9,1.4c0.6,0.7,0.9,1.5,0.9,2.5v1.7H4.2v-1.7
		C4.2,13.5,4.6,12.6,5.2,11.9z"/>
</g>
<path class="st21" d="M17.2,26.3h0.5c1.7,0,3,1.3,3,3v3.8l-0.1,1.5v0.8h3c1.7,0,3,1.3,3,3s-1.3,3-3,3h-3h-3c-1.7,0-3-1.3-3-3v-3.8
	l0.1-1.5v-0.8v0H6.6v-6h8.1H17.2z"/>
<polygon class="st21" points="11.9,16.1 11.9,16.1 15.1,12.9 18.5,16.3 11.9,22.9 11.9,26.8 4.2,26.8 4.2,16.1 "/>
<g>
	<path class="st2" d="M7.8,13.4c0,0.3-0.2,0.5-0.5,0.5c-0.3,0-0.5-0.2-0.5-0.5c0-0.3,0.2-0.5,0.5-0.5C7.6,12.9,7.8,13.2,7.8,13.4z"
		/>
	<path class="st2" d="M10.2,13.4c0,0.3-0.2,0.5-0.5,0.5c-0.3,0-0.5-0.2-0.5-0.5c0-0.3,0.2-0.5,0.5-0.5C10,12.9,10.2,13.2,10.2,13.4z
		"/>
</g>
<path class="st2" d="M8.5,15.1c-0.5,0-0.9-0.1-1.4-0.3C7,14.8,6.9,14.6,7,14.5c0.1-0.1,0.2-0.2,0.4-0.2c0.7,0.3,1.6,0.3,2.4,0
	c0.2-0.1,0.3,0,0.4,0.2c0.1,0.2,0,0.3-0.2,0.4C9.5,15,9,15.1,8.5,15.1z"/>
<g>
	<path class="st20" d="M6.6,32.3C8,32.3,9,31.2,9,29.9v-3.6H4.2v3.6C4.2,31.2,5.3,32.3,6.6,32.3z"/>
</g>
<g>
	<path class="st19" d="M24.6,1.6c0.4-0.4,0.4-1,0-1.4s-1-0.4-1.4,0s-0.6,1.9-0.6,1.9S24.2,2,24.6,1.6z"/>
	<path class="st19" d="M26.4,3.7c0.5,0.2,1,0.3,1.4-0.1c0.4-0.4,0.3-1-0.1-1.4c-1.1-1-3.4,1.2-3.4,1.2S25.7,3.5,26.4,3.7z"/>
	<path class="st19" d="M15.7,4.2c-0.5,0.2-1,0.3-1.4-0.1s-0.3-1,0.1-1.4c1.1-1,3.4,1.2,3.4,1.2S16.4,3.9,15.7,4.2z"/>
</g>
<g>
	<path class="st22" d="M4.2,14.3v0.2v2.2l3.7-6C5.9,10.6,4.2,12.2,4.2,14.3z"/>
</g>
<g>
	<path class="st22" d="M6.4,19.3c0,1.8-1.8,3.3-1.8,3.3s-1.8-1.5-1.8-3.3c0-1.8,1.8-3.3,1.8-3.3S6.4,17.5,6.4,19.3z"/>
</g>
<g>
	<path class="st20" d="M19.9,11.5c0.9,0.9,0.9,2.5,0,3.4l-2.6,2.6L14,14l2.6-2.6C17.5,10.5,19,10.5,19.9,11.5z"/>
</g>
<g>
	<path class="st19" d="M17.2,7.1c-0.5,0-0.9,0-1.2,0.1c0.7,2.2,2.7,3.8,5.1,3.8c2.1,0,3.9-1.2,4.8-2.9c-0.6,0.2-1.3,0.4-2.5,0.4
		C20.2,8.5,20.2,7.1,17.2,7.1z"/>
	<path class="st2" d="M21.1,11.2c-3.1,0-5.6-2.5-5.6-5.6l0-0.3l0.2,0h10.9l0,0.4C26.6,8.7,24.1,11.2,21.1,11.2z M15.9,5.7
		c0,2.8,2.3,5.1,5.1,5.1s5.1-2.3,5.1-5.1H15.9z"/>
</g>
<g>
	<g>
		
			<rect x="8.9" y="35.5" transform="matrix(-4.462493e-11 1 -1 -4.462493e-11 50.3549 23.2796)" class="st11" width="9.3" height="2.6"/>
		<path class="st2" d="M15,41.7h-3v-9.8h3V41.7z M12.5,41.3h2.1v-8.9h-2.1V41.3z"/>
	</g>
	<g>
		
			<rect x="0.8" y="35.5" transform="matrix(-4.481944e-11 1 -1 -4.481944e-11 42.2901 31.3445)" class="st11" width="9.3" height="2.6"/>
		<path class="st2" d="M7,41.7H4v-9.8h3V41.7z M4.4,41.3h2.1v-8.9H4.4V41.3z"/>
	</g>
	<g>
		
			<rect x="4.2" y="32.2" transform="matrix(-1 -4.477408e-11 4.477408e-11 -1 19.0105 66.8793)" class="st11" width="10.6" height="2.6"/>
		<path class="st2" d="M15,34.9H4v-3H15V34.9z M4.4,34.5h10.2v-2.1H4.4V34.5z"/>
	</g>
</g>
</svg>
