<?xml version="1.0" encoding="utf-8"?>
<!-- Generator: Adobe Illustrator 22.1.0, SVG Export Plug-In . SVG Version: 6.00 Build 0)  -->
<svg version="1.1" id="Layer_1" xmlns="http://www.w3.org/2000/svg" xmlns:xlink="http://www.w3.org/1999/xlink" x="0px" y="0px"
	 viewBox="0 0 100.5 100" style="enable-background:new 0 0 100.5 100;" xml:space="preserve">
<style type="text/css">
	.st0{fill:#010101;}
	.st1{fill:#F37021;}
	.st2{fill:#FCD00C;}
	.st3{fill:#FFFFFF;}
	.st4{fill:#BC772A;}
	.st5{fill:#BC772A;stroke:#010101;stroke-width:0.3347;stroke-miterlimit:10;}
	.st6{fill:#BB772B;}
	.st7{fill:#F8CCE0;}
	.st8{fill:#00BDF2;}
	.st9{fill:#FBD00D;}
	.st10{fill:#EF68A3;}
	.st11{fill:none;}
	.st12{fill:#6ECEF5;}
	.st13{fill:#E9262A;}
	.st14{fill:#015474;}
	.st15{fill:#0886B2;}
	.st16{fill:#221F1F;}
	.st17{fill:#FAF6BD;}
	.st18{fill:#D99628;}
	.st19{fill:#F9A554;}
	.st20{fill:#ED2938;}
	.st21{fill:#8D6F3D;stroke:#010101;stroke-width:0.4197;stroke-miterlimit:10;}
	.st22{fill:#8D6F3D;stroke:#010101;stroke-width:0.432;stroke-miterlimit:10;}
	.st23{fill:#FFFFFF;stroke:#010101;stroke-width:0.4855;stroke-miterlimit:10;}
	.st24{fill:none;stroke:#010101;stroke-width:0.4855;stroke-miterlimit:10;}
	.st25{fill:#FFFFFF;stroke:#010101;stroke-width:0.3138;stroke-miterlimit:10;}
	.st26{fill:url(#SVGID_1_);stroke:#010101;stroke-width:0.4855;stroke-miterlimit:10;}
	.st27{fill:url(#SVGID_2_);stroke:#010101;stroke-width:0.4855;stroke-miterlimit:10;}
	.st28{fill:url(#SVGID_3_);stroke:#010101;stroke-width:0.4855;stroke-miterlimit:10;}
	.st29{fill:#FFFFFF;stroke:#010101;stroke-width:0.4855;stroke-linecap:round;stroke-miterlimit:10;}
	.st30{fill:url(#SVGID_4_);stroke:#010101;stroke-width:0.4855;stroke-miterlimit:10;}
	.st31{fill:url(#SVGID_5_);stroke:#010101;stroke-width:0.4855;stroke-miterlimit:10;}
	.st32{fill:url(#SVGID_6_);stroke:#010101;stroke-width:0.4855;stroke-miterlimit:10;}
	.st33{fill:url(#SVGID_7_);stroke:#010101;stroke-width:0.4855;stroke-miterlimit:10;}
	.st34{fill:url(#SVGID_8_);stroke:#010101;stroke-width:0.4855;stroke-miterlimit:10;}
	.st35{fill:url(#SVGID_9_);stroke:#010101;stroke-width:0.4855;stroke-miterlimit:10;}
	.st36{fill:url(#SVGID_10_);stroke:#010101;stroke-width:0.4855;stroke-miterlimit:10;}
	.st37{fill:url(#SVGID_11_);stroke:#010101;stroke-width:0.4855;stroke-miterlimit:10;}
	.st38{fill:url(#SVGID_12_);stroke:#010101;stroke-width:0.4855;stroke-miterlimit:10;}
	.st39{fill:#FFFFFF;stroke:#010101;stroke-width:1.4119;stroke-miterlimit:10;}
	.st40{fill:none;stroke:#010101;stroke-width:0.4855;stroke-miterlimit:10;stroke-dasharray:0.93,0.93;}
	.st41{fill:none;stroke:#010101;stroke-width:0.4855;stroke-miterlimit:10;stroke-dasharray:2.4799,0.93,0.93,0.93;}
	.st42{fill:none;stroke:#010101;stroke-width:0.4855;stroke-miterlimit:10;stroke-dasharray:0.8869,0.8869;}
	.st43{fill:none;stroke:#010101;stroke-width:0.4855;stroke-miterlimit:10;stroke-dasharray:2.365,0.8869,0.8869,0.8869;}
	.st44{fill:none;stroke:#010101;stroke-width:0.4855;stroke-miterlimit:10;stroke-dasharray:0.8768,0.8768;}
	.st45{fill:none;stroke:#010101;stroke-width:0.4855;stroke-miterlimit:10;stroke-dasharray:2.3382,0.8768,0.8768,0.8768;}
	.st46{fill:none;stroke:#010101;stroke-width:0.4855;stroke-miterlimit:10;stroke-dasharray:0.8668,0.8668;}
	.st47{fill:none;stroke:#010101;stroke-width:0.4855;stroke-miterlimit:10;stroke-dasharray:2.3116,0.8668,0.8668,0.8668;}
	.st48{fill:none;stroke:#010101;stroke-width:0.4855;stroke-miterlimit:10;stroke-dasharray:0.8407,0.8407;}
	.st49{fill:none;stroke:#010101;stroke-width:0.4855;stroke-miterlimit:10;stroke-dasharray:2.2418,0.8407,0.8407,0.8407;}
	.st50{fill:none;stroke:#010101;stroke-width:0.4855;stroke-miterlimit:10;stroke-dasharray:0.8217,0.8217;}
	.st51{fill:none;stroke:#010101;stroke-width:0.4855;stroke-miterlimit:10;stroke-dasharray:2.1911,0.8217,0.8217,0.8217;}
	.st52{fill:none;stroke:#010101;stroke-width:0.4855;stroke-miterlimit:10;stroke-dasharray:0.7993,0.7993;}
	.st53{fill:none;stroke:#010101;stroke-width:0.4855;stroke-miterlimit:10;stroke-dasharray:2.1314,0.7993,0.7993,0.7993;}
	.st54{fill:none;stroke:#010101;stroke-width:0.4855;stroke-miterlimit:10;stroke-dasharray:0.8527,0.8527;}
	.st55{fill:none;stroke:#010101;stroke-width:0.4855;stroke-miterlimit:10;stroke-dasharray:2.2739,0.8527,0.8527,0.8527;}
	.st56{fill:none;stroke:#010101;stroke-width:0.4855;stroke-miterlimit:10;stroke-dasharray:0.8398,0.8398;}
	.st57{fill:none;stroke:#010101;stroke-width:0.4855;stroke-miterlimit:10;stroke-dasharray:2.2396,0.8398,0.8398,0.8398;}
	.st58{fill:none;stroke:#010101;stroke-width:0.4855;stroke-miterlimit:10;stroke-dasharray:1.098,1.098;}
	.st59{fill:none;stroke:#010101;stroke-width:0.4855;stroke-miterlimit:10;stroke-dasharray:2.928,1.098,1.098,1.098;}
	.st60{fill:none;stroke:#010101;stroke-width:0.5849;stroke-linecap:round;stroke-miterlimit:10;}
	.st61{fill:none;stroke:#010101;stroke-width:0.4614;stroke-linecap:round;stroke-miterlimit:10;}
	.st62{fill:#FFFFFF;stroke:#010101;stroke-width:0.4614;stroke-miterlimit:10;}
	.st63{fill:#EF486A;}
	.st64{fill:none;stroke:#010101;stroke-width:0.4614;stroke-miterlimit:10;}
	.st65{fill:none;stroke:#00BDF2;stroke-width:0.4614;stroke-miterlimit:10;}
	.st66{fill:#FFFFFF;stroke:#010101;stroke-width:0.517;stroke-linecap:round;stroke-linejoin:round;stroke-miterlimit:10;}
	.st67{fill:none;stroke:#010101;stroke-width:0.498;stroke-linejoin:round;stroke-miterlimit:10;}
	.st68{fill:#010101;stroke:#010101;stroke-width:0.517;stroke-miterlimit:10;}
	.st69{fill:#010101;stroke:#B92227;stroke-width:0.517;stroke-miterlimit:10;}
	.st70{fill:#010101;stroke:#B92227;stroke-width:0.332;stroke-miterlimit:10;}
	.st71{fill:#F1DC28;}
	.st72{fill:#FCD00C;stroke:#010101;stroke-width:0.5559;stroke-miterlimit:10;}
	.st73{fill:#FFFFFF;stroke:#010101;stroke-width:0.3267;stroke-miterlimit:10;}
	.st74{fill:none;stroke:#010101;stroke-width:0.3267;stroke-linecap:round;stroke-miterlimit:10;}
</style>
<g>
	<g>
		<circle class="st21" cx="45.8" cy="96" r="2"/>
		<g>
			<g>
				<path class="st22" d="M49,96.5c-0.1,1.5-0.4,2-0.6,2.2c-0.7,0.8-2,1.1-2.8,1c-1.2-0.1-2.2-0.8-2.8-1.8c-0.2-0.4-0.3-0.9-0.5-1.4
					c-0.1-0.3-0.5-0.5-0.5-0.6"/>
				<line class="st22" x1="48.7" y1="96.5" x2="48.7" y2="96.5"/>
			</g>
			<g>
				<path class="st22" d="M49,96.5c0.1-1.7-0.1-2.1-0.2-2.3c-0.6-0.9-1.7-1.4-2.6-1.5c-1.2-0.1-2.3,0.4-3.1,1.3
					c-0.3,0.3-0.4,0.8-0.7,1.2c-0.2,0.3-0.6,0.5-0.6,0.6c0,0,2,0.3,2.5-0.2c0.6-0.5,1.8-0.2,2.2-0.1c0.4,0.2,0.5,0.6,1,0.6
					c0.5,0,1.5,0.2,1.5,0.2"/>
				<line class="st22" x1="48.7" y1="96.5" x2="48.7" y2="96.5"/>
			</g>
		</g>
		<path class="st22" d="M43.4,97.3c0,0,0.7,0.2,1.1,0c0.4-0.2,0.8-0.2,0.8-0.2"/>
		<path class="st22" d="M46.3,97c0,0,0.5,0.2,0.7,0.5c0.1,0.3,0.8,0.3,0.8,0.3"/>
		<path class="st22" d="M44.7,98.2c0,0,1-0.3,1.7,0.2"/>
		<path class="st22" d="M43.6,94.5c0,0,0.5,0.1,0.8-0.2c0.3-0.2,0.8-0.4,1.4-0.3c0.6,0.1,0.9,0.2,1.4,0.6"/>
	</g>
	<g>
		<circle class="st21" cx="55.7" cy="81.4" r="2"/>
		<g>
			<g>
				<path class="st22" d="M57.7,84c-1.1,1-1.7,1.2-2,1.2c-1.1,0.1-2.2-0.6-2.7-1.3c-0.8-0.9-1-2.2-0.7-3.3c0.1-0.4,0.5-0.9,0.7-1.3
					c0.1-0.3,0.1-0.7,0.1-0.8"/>
				<line class="st22" x1="57.5" y1="83.8" x2="57.5" y2="83.8"/>
			</g>
			<g>
				<path class="st22" d="M57.7,84c1.3-1.1,1.4-1.5,1.5-1.8c0.2-1.1-0.2-2.2-0.8-2.9c-0.8-0.9-2-1.4-3.1-1.2c-0.4,0-0.9,0.3-1.4,0.4
					c-0.3,0.1-0.8,0-0.9,0c0,0,1.2,1.6,1.9,1.7s1.5,1.1,1.6,1.5c0.2,0.4-0.1,0.8,0.3,1.1S57.7,84.1,57.7,84"/>
				<line class="st22" x1="57.5" y1="83.8" x2="57.5" y2="83.8"/>
			</g>
		</g>
		<path class="st22" d="M53.2,80.6c0,0,0.4,0.6,0.8,0.7c0.4,0.1,0.7,0.4,0.7,0.4"/>
		<path class="st22" d="M55.3,82.4c0,0,0.2,0.5,0.1,0.8c-0.1,0.3,0.4,0.8,0.4,0.8"/>
		<path class="st22" d="M53.4,82.1c0,0,0.9,0.5,1,1.4"/>
		<path class="st22" d="M55.2,78.7c0,0,0.3,0.4,0.7,0.5c0.4,0.1,0.8,0.3,1.2,0.8c0.4,0.5,0.5,0.8,0.6,1.4"/>
	</g>
	<circle class="st21" cx="37.9" cy="92.8" r="2"/>
	<g>
		<g>
			<path class="st22" d="M37.4,96.1c-1.5-0.1-2-0.4-2.2-0.6c-0.8-0.7-1.1-2-1-2.8c0.1-1.2,0.8-2.2,1.8-2.8c0.4-0.2,0.9-0.3,1.4-0.5
				c0.3-0.1,0.5-0.5,0.6-0.5"/>
			<line class="st22" x1="37.4" y1="95.8" x2="37.4" y2="95.8"/>
		</g>
		<g>
			<path class="st22" d="M37.4,96.1c1.7,0.1,2.1-0.1,2.3-0.2c0.9-0.6,1.4-1.7,1.5-2.6c0.1-1.2-0.4-2.3-1.3-3.1
				c-0.3-0.3-0.8-0.4-1.2-0.7c-0.3-0.2-0.5-0.6-0.6-0.6c0,0-0.3,2,0.2,2.5s0.2,1.8,0.1,2.2c-0.2,0.4-0.6,0.5-0.6,1
				c0,0.5-0.2,1.5-0.2,1.5"/>
			<line class="st22" x1="37.4" y1="95.8" x2="37.4" y2="95.8"/>
		</g>
	</g>
	<path class="st22" d="M36.6,90.5c0,0-0.2,0.7,0,1.1c0.2,0.4,0.2,0.8,0.2,0.8"/>
	<path class="st22" d="M36.9,93.3c0,0-0.2,0.5-0.5,0.7c-0.3,0.1-0.3,0.8-0.3,0.8"/>
	<path class="st22" d="M35.7,91.7c0,0,0.3,1-0.2,1.7"/>
	<path class="st22" d="M39.4,90.6c0,0-0.1,0.5,0.2,0.8c0.2,0.3,0.4,0.8,0.3,1.4c-0.1,0.6-0.2,0.9-0.6,1.4"/>
	<g>
		<circle class="st21" cx="4" cy="96.3" r="2"/>
		<g>
			<g>
				<path class="st22" d="M1.4,98.2c-1-1.1-1.2-1.7-1.2-2c-0.1-1.1,0.6-2.2,1.3-2.7c0.9-0.8,2.2-1,3.3-0.7c0.4,0.1,0.9,0.5,1.3,0.7
					c0.3,0.1,0.7,0.1,0.8,0.1"/>
				<line class="st22" x1="1.6" y1="98.1" x2="1.6" y2="98.1"/>
			</g>
			<g>
				<path class="st22" d="M1.4,98.3c1.1,1.3,1.5,1.4,1.8,1.5c1.1,0.2,2.2-0.2,2.9-0.8c0.9-0.8,1.4-2,1.2-3.1c0-0.4-0.3-0.9-0.4-1.4
					c-0.1-0.3,0-0.8,0-0.9c0,0-1.6,1.2-1.7,1.9c-0.1,0.7-1.1,1.5-1.5,1.6S2.9,97,2.5,97.4C2.1,97.8,1.3,98.3,1.4,98.3"/>
				<line class="st22" x1="1.6" y1="98.1" x2="1.6" y2="98.1"/>
			</g>
		</g>
		<path class="st22" d="M4.8,93.8c0,0-0.6,0.4-0.7,0.8C4,95,3.7,95.3,3.7,95.3"/>
		<path class="st22" d="M3,95.9c0,0-0.5,0.2-0.8,0.1s-0.8,0.4-0.8,0.4"/>
		<path class="st22" d="M3.3,94c0,0-0.5,0.9-1.4,1"/>
		<path class="st22" d="M6.6,95.8c0,0-0.4,0.3-0.5,0.7c-0.1,0.4-0.3,0.8-0.8,1.2c-0.5,0.4-0.8,0.5-1.4,0.6"/>
	</g>
	<g>
		<g>
			<g>
				<path class="st23" d="M91.6,44.7c0.3-0.3,0.7-0.6,1.1-0.8c0.1-0.1,0.2-0.1,0.3-0.2c0,0,0.1,0,0.1-0.1c0.3-0.2,0.5-0.5,0.5-0.9
					c0.3-1.3-0.4-2.8-1.1-3.6c-1-1.1-2.5-1.6-3.9-1.4c-0.9,0.1-2.5,0.4-2.7,0.6"/>
				<line class="st23" x1="91.6" y1="44.7" x2="91.6" y2="44.7"/>
			</g>
			<g>
				<path class="st23" d="M91.5,44.7c-0.3,0.3-0.7,0.6-1,1c-0.1,0.1-0.1,0.2-0.2,0.3c0,0,0,0-0.1,0.1c-0.3,0.2-0.6,0.4-0.9,0.4
					c-1.3,0.1-2.7-0.7-3.4-1.5c-1-1.1-1.3-2.7-1-4c0.2-0.8,0.7-2.4,0.9-2.6"/>
				<line class="st23" x1="91.6" y1="44.7" x2="91.5" y2="44.7"/>
			</g>
			<g>
				<path class="st23" d="M88.6,39c-0.3,0-0.6,0-0.9,0.1"/>
				<path class="st23" d="M92.1,44.2c0.1-0.2,0.2-0.4,0.3-0.5c0.3-1.3-0.3-2.7-0.9-3.4c-0.6-0.7-1.4-1.1-2.2-1.2"/>
			</g>
		</g>
		<g>
			<path class="st23" d="M95.4,35.6c0,0-0.4-0.4-0.6-0.3c-0.2,0.1-1.3,0.3-1.3,0.3s-1.7-0.4-1.8,0.8c0,0.4,0.4,0.9,0.7,1
				c0.6,0.2,0.4,0.6,0.4,0.6c-0.2,0.6-0.4,1.2-0.4,1.4c0,0.6,0.5,1.1,1.1,1.1c0.6,0,1.1-0.5,1.1-1.1c0-0.5-0.4-0.9-0.5-1.5
				c0-0.5,0.9-0.7,1.3-1.3C95.7,36.1,95.4,35.6,95.4,35.6z"/>
			<g>
				<path class="st23" d="M87.7,37.9c-0.1-1.9,0.1-3.9,0.5-5.8l-1-0.2c-0.6,2.5-0.8,4.5-0.6,6.9c-2.7,4.1-4.6,10.2-4.2,15.4l1-0.1
					c-0.3-4.6,0.8-8.9,2.9-12.6c0.3-0.4,0.5-0.9,0.8-1.3c3-4.4,7.6-7.7,13-9l-0.2-1C94.7,31.4,90.8,33.8,87.7,37.9z"/>
				<polygon class="st23" points="97.7,32.6 98.1,33.2 97.8,33.9 97.1,34 96.6,33.4 96.9,32.7 				"/>
				<polygon class="st23" points="96.7,33.3 97.1,33.9 96.8,34.6 96.1,34.7 95.7,34.1 96,33.4 				"/>
				<polygon class="st23" points="97.5,31.4 98,32 97.7,32.6 96.9,32.7 96.5,32.1 96.8,31.4 				"/>
				<polygon class="st23" points="97.4,30.1 97.8,30.7 97.5,31.4 96.8,31.5 96.3,30.9 96.6,30.2 				"/>
				<polygon class="st23" points="96.4,30.8 96.8,31.4 96.5,32.1 95.8,32.2 95.4,31.6 95.7,30.9 				"/>
				<polygon class="st23" points="96.2,29.6 96.7,30.2 96.4,30.8 95.6,30.9 95.2,30.3 95.5,29.7 				"/>
				<polygon class="st23" points="94.1,29.8 94.5,30.4 94.2,31.1 93.5,31.1 93.1,30.6 93.4,29.9 				"/>
				<polygon class="st23" points="93.1,30.5 93.5,31.1 93.2,31.8 92.5,31.8 92.1,31.3 92.4,30.6 				"/>
				<polygon class="st23" points="92.2,31.2 92.6,31.8 92.3,32.5 91.6,32.5 91.1,31.9 91.4,31.3 				"/>
				<polygon class="st23" points="95.4,31.6 95.8,32.1 95.5,32.8 94.8,32.9 94.4,32.3 94.7,31.6 				"/>
				<polygon class="st23" points="95.2,30.3 95.6,30.9 95.3,31.6 94.6,31.6 94.2,31.1 94.5,30.4 				"/>
				<polygon class="st23" points="94.2,31 94.7,31.6 94.4,32.3 93.6,32.3 93.2,31.8 93.5,31.1 				"/>
				<polygon class="st23" points="93.2,31.7 93.7,32.3 93.4,33 92.6,33.1 92.2,32.5 92.5,31.8 				"/>
				<polygon class="st23" points="92.3,32.4 92.7,33 92.4,33.7 91.7,33.8 91.2,33.2 91.5,32.5 				"/>
				<polygon class="st23" points="94.4,32.3 94.8,32.9 94.5,33.5 93.8,33.6 93.3,33 93.6,32.4 				"/>
				<polygon class="st23" points="96.5,32.1 96.9,32.7 96.6,33.3 95.9,33.4 95.5,32.8 95.8,32.2 				"/>
				<polygon class="st23" points="95.5,32.8 96,33.4 95.7,34.1 94.9,34.1 94.5,33.5 94.8,32.9 				"/>
				<polygon class="st23" points="95.6,34.1 96.1,34.7 95.8,35.3 95.1,35.4 94.6,34.8 94.9,34.2 				"/>
				<polygon class="st23" points="94.7,34.8 95.1,35.4 94.8,36 94.1,36.1 93.6,35.5 93.9,34.9 				"/>
				<polygon class="st23" points="94.5,33.6 94.9,34.1 94.6,34.8 93.9,34.9 93.5,34.3 93.8,33.6 				"/>
				<polygon class="st23" points="93.7,35.5 94.1,36.1 93.8,36.8 93.1,36.8 92.6,36.2 92.9,35.6 				"/>
				<polygon class="st23" points="93.5,34.3 93.9,34.9 93.6,35.5 92.9,35.6 92.5,35 92.8,34.3 				"/>
				<polygon class="st23" points="92.5,35 92.9,35.6 92.6,36.2 91.9,36.3 91.5,35.7 91.8,35.1 				"/>
				<polygon class="st23" points="93.3,33 93.8,33.6 93.5,34.3 92.7,34.3 92.3,33.8 92.6,33.1 				"/>
				<polygon class="st23" points="92.4,33.7 92.8,34.3 92.5,35 91.8,35 91.3,34.5 91.6,33.8 				"/>
				<polygon class="st23" points="91.2,33.2 91.6,33.8 91.3,34.4 90.6,34.5 90.2,33.9 90.5,33.3 				"/>
				<polygon class="st23" points="91.4,34.4 91.8,35 91.5,35.7 90.8,35.8 90.3,35.2 90.6,34.5 				"/>
			</g>
			<path class="st23" d="M94.2,26.3c0.2-0.6-0.2-1.3-0.8-1.5l0,0l0,0l-1.1-0.3l0,0l0,0c-0.6-0.2-1.6,0.8-1.6,0.8s0.3,1.3,0.9,1.5
				l1.2,0.3C93.3,27.3,94,27,94.2,26.3z"/>
			<line class="st24" x1="92.4" y1="24.7" x2="91.7" y2="26.9"/>
			<line class="st24" x1="93.2" y1="25" x2="92.5" y2="27.3"/>
			<path class="st23" d="M92.9,23.3c0.2,0.4-0.1,1.4-0.1,1.4s-1-0.3-1.2-0.7c-0.2-0.4-0.1-0.8,0.3-1C92.3,22.8,92.7,22.9,92.9,23.3z
				"/>
			<path class="st23" d="M93.5,23.5c-0.4,0.2-0.7,1.2-0.7,1.2s1,0.3,1.4,0.1c0.4-0.2,0.5-0.6,0.3-1S93.9,23.3,93.5,23.5z"/>
		</g>
		<g>
			<circle class="st25" cx="84.4" cy="28.4" r="1.8"/>
			<g>
				<g>
					<path class="st23" d="M84.8,31.3c1.3-0.1,1.8-0.4,2-0.5c0.7-0.6,1-1.7,0.9-2.5c-0.1-1.1-0.7-2-1.6-2.5
						c-0.3-0.2-0.8-0.2-1.3-0.4c-0.3-0.1-0.5-0.4-0.6-0.4"/>
					<line class="st23" x1="84.8" y1="31" x2="84.8" y2="31"/>
				</g>
				<g>
					<path class="st23" d="M84.8,31.3c-1.5,0.1-1.8-0.1-2-0.2c-0.8-0.5-1.3-1.6-1.3-2.3c-0.1-1.1,0.4-2.1,1.2-2.7
						c0.3-0.2,0.7-0.4,1.1-0.6c0.3-0.2,0.5-0.5,0.6-0.5c0,0,0.3,1.8-0.1,2.2c-0.4,0.5-0.2,1.6-0.1,2s0.5,0.4,0.6,0.9
						s0.2,1.3,0.2,1.3"/>
					<line class="st23" x1="84.8" y1="31" x2="84.8" y2="31"/>
				</g>
			</g>
			
				<linearGradient id="SVGID_1_" gradientUnits="userSpaceOnUse" x1="141.2545" y1="-48.9106" x2="141.2545" y2="-49.4128" gradientTransform="matrix(0.9978 -6.597765e-02 6.597765e-02 0.9978 -52.3159 85.8632)">
				<stop  offset="0" style="stop-color:#FFFFFF"/>
				<stop  offset="1" style="stop-color:#F1DC26"/>
			</linearGradient>
			<path class="st26" d="M85.5,26.3c0,0,0.2,0.6,0,1c-0.2,0.3-0.2,0.7-0.2,0.7"/>
			
				<linearGradient id="SVGID_2_" gradientUnits="userSpaceOnUse" x1="141.3612" y1="-46.6683" x2="141.3612" y2="-47.0747" gradientTransform="matrix(0.9978 -6.597765e-02 6.597765e-02 0.9978 -52.3159 85.8632)">
				<stop  offset="0" style="stop-color:#FFFFFF"/>
				<stop  offset="1" style="stop-color:#F1DC26"/>
			</linearGradient>
			<path class="st27" d="M85.3,28.8c0,0,0.2,0.5,0.4,0.6s0.3,0.7,0.3,0.7"/>
			
				<linearGradient id="SVGID_3_" gradientUnits="userSpaceOnUse" x1="142.1772" y1="-47.8871" x2="142.1772" y2="-48.3392" gradientTransform="matrix(0.9978 -6.597765e-02 6.597765e-02 0.9978 -52.3159 85.8632)">
				<stop  offset="0" style="stop-color:#FFFFFF"/>
				<stop  offset="1" style="stop-color:#F1DC26"/>
			</linearGradient>
			<path class="st28" d="M86.3,27.4c0,0-0.3,0.9,0.2,1.5"/>
			<path class="st24" d="M83,26.4c0,0,0.1,0.5-0.2,0.7c-0.2,0.3-0.4,0.7-0.3,1.3c0.1,0.5,0.2,0.8,0.5,1.2"/>
		</g>
		<g>
			<g>
				<path class="st23" d="M68.1,42.2c0,0,0.1,3,2.1,3.8c2,0.8,4.4,0.5,5.5,0.1c1-0.5,1.8-0.6,2-1.5c0.2-0.9,0.1-1.5-0.6-1.7
					c-0.8-0.2-1.9-0.9-2.4-1.4s-1.1-1.4-2.1-1.6C71.5,39.5,68.8,39.1,68.1,42.2z"/>
				<path class="st23" d="M65.1,45.1c0,0-0.9,3.3,1,5c2,1.6,4.8,2.1,6.1,1.9s2.2-0.1,2.8-1c0.6-0.9,0.7-1.6-0.1-2.1
					c-0.8-0.5-1.8-1.6-2.2-2.4c-0.4-0.8-0.7-2-1.8-2.6C69.8,43.2,66.9,41.9,65.1,45.1z"/>
				<path class="st24" d="M65.4,44.6c0,0-2.4-1.5-3.1-3.7s-1.4-3.6-1.4-3.6"/>
				<path class="st24" d="M68.3,41.6c0,0-3.1,1.1-6-0.8"/>
			</g>
			<path class="st23" d="M66.2,45.2c0,0-1.1,3.1,1.8,4.7"/>
			<path class="st23" d="M68.6,50.2c0,0,0.9,0.4,1.5,0.4"/>
		</g>
		<g>
			<g>
				<path class="st23" d="M82.5,37c0.4-0.2,0.9-0.3,1.3-0.4c0.1,0,0.2,0,0.3-0.1c0,0,0.1,0,0.1,0c0.3-0.1,0.6-0.3,0.8-0.6
					c0.7-1.1,0.7-2.7,0.3-3.7c-0.5-1.4-1.7-2.4-3.1-2.7c-0.8-0.2-2.5-0.5-2.8-0.4"/>
				<line class="st23" x1="82.5" y1="37" x2="82.5" y2="37"/>
			</g>
			<g>
				<path class="st23" d="M82.5,37c-0.4,0.2-0.9,0.4-1.3,0.6c-0.1,0.1-0.2,0.1-0.3,0.2c0,0-0.1,0-0.1,0c-0.3,0.1-0.7,0.2-1,0.1
					c-1.3-0.4-2.3-1.6-2.7-2.6c-0.5-1.4-0.3-2.9,0.5-4.1c0.5-0.7,1.5-2,1.8-2.1"/>
				<line class="st23" x1="82.5" y1="37" x2="82.5" y2="37"/>
			</g>
			<g>
				<path class="st23" d="M81.8,30.6c-0.3-0.1-0.6-0.2-0.9-0.3"/>
				<path class="st23" d="M83.2,36.7c0.2-0.1,0.3-0.2,0.4-0.4c0.7-1.1,0.7-2.6,0.4-3.5c-0.3-0.8-0.9-1.5-1.6-1.9"/>
			</g>
		</g>
		<g>
			<path class="st29" d="M93.1,40.1c-0.9,0-0.8,0.8-1.6,2c-2,3.4-6.3,5-9.6,2.9c-0.3-0.2,0.1,0.2-0.2,0.1l-0.5-0.7l-0.9,0.9l0.3,0.6
				l0,0c0.3,0.9,1.4,2,2.8,2.8c3.4,2,7.6,0.8,9.7-2.5C95.4,42.4,94.1,40,93.1,40.1z"/>
			<path class="st29" d="M94.2,42.2c-0.9-0.1-0.9,0.6-1.8,1.8c-2.4,3.1-6.3,4.3-9.2,1.7c-0.3-0.2-0.5-0.4-0.7-0.5l-0.7-0.4l-1.1,0
				l0.5,1.4l0,0c0.2,0.9,1.1,2.2,2.4,3.1c3.1,2.4,7.4,1.8,9.9-1.2C96.2,44.8,95.2,42.3,94.2,42.2z"/>
			<path class="st29" d="M93.8,47.3c-0.8-0.5-1.1,0.1-2.5,0.8c-3.6,1.6-7.5,0.9-9-2.8c-0.1-0.4-0.3-0.6-0.4-0.8l-0.3-1.9L80,42.8
				l0.3,2l0.1,0c-0.3,0.9,0,2.4,0.7,3.9c1.6,3.6,5.8,5,9.4,3.5C94.4,50.5,94.7,47.8,93.8,47.3z"/>
		</g>
		<path class="st29" d="M73.6,31.3c-1.2-1.2-1.1-2.3-0.3-3.1c0.8-0.8,2-0.9,3.1,0.3c1.2,1.2,2,4.8,2,4.8S74.8,32.5,73.6,31.3z"/>
		<line class="st29" x1="75.5" y1="32.5" x2="75.5" y2="30.3"/>
		<line class="st29" x1="77.6" y1="30.4" x2="75.4" y2="30.3"/>
		<line class="st23" x1="76.9" y1="29.1" x2="74.1" y2="29"/>
		<line class="st29" x1="78.5" y1="33.4" x2="73.3" y2="28.2"/>
		<line class="st29" x1="74.2" y1="31.8" x2="74.1" y2="28.9"/>
		<g>
			<g>
				<path class="st23" d="M73.1,34.3c0,0-2.9,0.8-3.2,2.9s0.5,4.4,1.2,5.3c0.7,0.9,1,1.6,1.9,1.6c0.9,0,1.5-0.2,1.5-1
					c0-0.8,0.4-2.1,0.8-2.7c0.4-0.6,1.1-1.4,1.1-2.5C76.4,36.9,76.2,34.2,73.1,34.3z"/>
				<path class="st23" d="M69.5,32.1c0,0-3.5-0.1-4.6,2.2c-1.1,2.3-0.9,5.2-0.4,6.4c0.5,1.2,0.6,2.1,1.6,2.5c1,0.3,1.7,0.3,2-0.6
					c0.3-0.9,1.2-2.2,1.8-2.7c0.7-0.5,1.8-1.2,2.1-2.4C72.4,36.2,73.1,33.1,69.5,32.1z"/>
				<path class="st24" d="M70.1,32.3c0,0,0.9-2.7,2.9-3.9c2-1.2,3.1-2.2,3.1-2.2"/>
				<path class="st24" d="M73.6,34.3c0,0-1.8-2.8-0.6-6"/>
			</g>
			<path class="st23" d="M69.6,33.2c0,0-3.3-0.3-4.2,2.9"/>
			<path class="st23" d="M65.3,36.6c0,0-0.1,0.9,0,1.5"/>
		</g>
		<g>
			<path class="st29" d="M89.2,32.5c-1,1.3-2.2,1.4-3.1,0.7C85.2,32.5,85,31.3,86,30c1-1.3,4.6-2.6,4.6-2.6S90.2,31.2,89.2,32.5z"/>
			<line class="st29" x1="90.1" y1="30.5" x2="87.9" y2="30.8"/>
			<line class="st29" x1="87.7" y1="28.7" x2="88" y2="30.9"/>
			<line class="st23" x1="86.5" y1="29.5" x2="86.8" y2="32.4"/>
			<line class="st29" x1="90.6" y1="27.4" x2="86.1" y2="33.2"/>
			<line class="st29" x1="89.6" y1="31.9" x2="86.7" y2="32.3"/>
		</g>
		<g>
			<path class="st29" d="M60.9,43.1c0.4-1.6,1.4-2.2,2.5-1.9c1.1,0.2,1.8,1.2,1.4,2.8c-0.4,1.6-3,4.3-3,4.3S60.5,44.7,60.9,43.1z"/>
			<line class="st29" x1="61" y1="45.2" x2="62.8" y2="44.1"/>
			<line class="st29" x1="63.8" y1="45.8" x2="62.7" y2="44.1"/>
			<line class="st23" x1="64.6" y1="44.7" x2="63.1" y2="42.2"/>
			<line class="st29" x1="61.8" y1="48.3" x2="63.4" y2="41.2"/>
			<line class="st29" x1="60.9" y1="43.8" x2="63.2" y2="42.2"/>
		</g>
		<g>
			<circle class="st25" cx="87.4" cy="34.6" r="1.8"/>
			<g>
				<g>
					<path class="st23" d="M86,37.1c1.1,0.7,1.6,0.8,1.9,0.8c1-0.1,1.9-0.7,2.3-1.4c0.6-0.9,0.7-2,0.3-2.9c-0.1-0.4-0.5-0.7-0.7-1.1
						c-0.1-0.2-0.1-0.6-0.2-0.7"/>
					<line class="st23" x1="86.1" y1="36.9" x2="86.2" y2="36.9"/>
				</g>
				<g>
					<path class="st23" d="M86,37.1c-1.2-0.8-1.4-1.2-1.5-1.4c-0.3-0.9,0-2,0.4-2.6c0.6-0.9,1.6-1.4,2.6-1.4c0.4,0,0.8,0.2,1.2,0.2
						c0.3,0,0.7-0.1,0.8-0.1c0,0-0.9,1.5-1.5,1.7s-1.2,1.1-1.3,1.5c-0.1,0.4,0.2,0.7-0.1,1C86.4,36.4,85.9,37.2,86,37.1"/>
					<line class="st23" x1="86.1" y1="36.9" x2="86.1" y2="36.9"/>
				</g>
			</g>
			
				<linearGradient id="SVGID_4_" gradientUnits="userSpaceOnUse" x1="302.5321" y1="751.4263" x2="302.5321" y2="750.924" gradientTransform="matrix(0.8233 0.5676 -0.5676 0.8233 266.0731 -755.631)">
				<stop  offset="0" style="stop-color:#FFFFFF"/>
				<stop  offset="1" style="stop-color:#F1DC26"/>
			</linearGradient>
			<path class="st30" d="M89.6,33.6c0,0-0.3,0.6-0.6,0.7c-0.4,0.1-0.6,0.4-0.6,0.4"/>
			
				<linearGradient id="SVGID_5_" gradientUnits="userSpaceOnUse" x1="302.6389" y1="753.6685" x2="302.6389" y2="753.2621" gradientTransform="matrix(0.8233 0.5676 -0.5676 0.8233 266.0731 -755.631)">
				<stop  offset="0" style="stop-color:#FFFFFF"/>
				<stop  offset="1" style="stop-color:#F1DC26"/>
			</linearGradient>
			<path class="st31" d="M87.9,35.5c0,0-0.2,0.5,0,0.7S87.6,37,87.6,37"/>
			
				<linearGradient id="SVGID_6_" gradientUnits="userSpaceOnUse" x1="303.4549" y1="752.4497" x2="303.4549" y2="751.9977" gradientTransform="matrix(0.8233 0.5676 -0.5676 0.8233 266.0731 -755.631)">
				<stop  offset="0" style="stop-color:#FFFFFF"/>
				<stop  offset="1" style="stop-color:#F1DC26"/>
			</linearGradient>
			<path class="st32" d="M89.6,35c0,0-0.8,0.5-0.8,1.3"/>
			<path class="st24" d="M87.6,32.2c0,0-0.2,0.4-0.6,0.5c-0.3,0.1-0.7,0.3-1,0.8c-0.3,0.5-0.4,0.8-0.4,1.3"/>
		</g>
		<g>
			<circle class="st25" cx="83.8" cy="38.9" r="1.8"/>
			<g>
				<g>
					<path class="st23" d="M84.6,41.7c1.3-0.2,1.7-0.6,1.9-0.7c0.6-0.7,0.8-1.8,0.6-2.6c-0.2-1.1-0.9-1.9-1.9-2.3
						C84.9,36,84.4,36,84,35.8c-0.3-0.1-0.5-0.4-0.6-0.3"/>
					<line class="st23" x1="84.6" y1="41.5" x2="84.6" y2="41.5"/>
				</g>
				<g>
					<path class="st23" d="M84.6,41.7c-1.5,0.3-1.8,0.2-2,0.1c-0.9-0.4-1.4-1.4-1.6-2.1c-0.2-1.1,0.1-2.1,0.9-2.8
						c0.2-0.3,0.7-0.4,1-0.7c0.2-0.2,0.4-0.6,0.5-0.6c0,0,0.5,1.7,0.1,2.2c-0.4,0.5,0,1.6,0.2,2s0.6,0.4,0.7,0.8
						c0.1,0.5,0.3,1.3,0.3,1.3"/>
					<line class="st23" x1="84.6" y1="41.5" x2="84.6" y2="41.5"/>
				</g>
			</g>
			
				<linearGradient id="SVGID_7_" gradientUnits="userSpaceOnUse" x1="164.1604" y1="-181.6021" x2="164.1604" y2="-182.1044" gradientTransform="matrix(0.9835 -0.1808 0.1808 0.9835 -43.8039 246.4595)">
				<stop  offset="0" style="stop-color:#FFFFFF"/>
				<stop  offset="1" style="stop-color:#F1DC26"/>
			</linearGradient>
			<path class="st33" d="M84.7,36.7c0,0,0.2,0.6,0.1,1c-0.2,0.4-0.1,0.7-0.1,0.7"/>
			
				<linearGradient id="SVGID_8_" gradientUnits="userSpaceOnUse" x1="164.2672" y1="-179.3599" x2="164.2672" y2="-179.7663" gradientTransform="matrix(0.9835 -0.1808 0.1808 0.9835 -43.8039 246.4595)">
				<stop  offset="0" style="stop-color:#FFFFFF"/>
				<stop  offset="1" style="stop-color:#F1DC26"/>
			</linearGradient>
			<path class="st34" d="M84.8,39.3c0,0,0.2,0.5,0.5,0.5c0.3,0.1,0.3,0.7,0.3,0.7"/>
			
				<linearGradient id="SVGID_9_" gradientUnits="userSpaceOnUse" x1="165.0831" y1="-180.5787" x2="165.0831" y2="-181.0307" gradientTransform="matrix(0.9835 -0.1808 0.1808 0.9835 -43.8039 246.4595)">
				<stop  offset="0" style="stop-color:#FFFFFF"/>
				<stop  offset="1" style="stop-color:#F1DC26"/>
			</linearGradient>
			<path class="st35" d="M85.7,37.7c0,0-0.2,0.9,0.4,1.5"/>
			<path class="st24" d="M82.3,37.2c0,0,0.1,0.4-0.1,0.8c-0.2,0.3-0.3,0.7-0.1,1.3c0.1,0.5,0.3,0.8,0.6,1.1"/>
		</g>
		<g>
			<path class="st23" d="M74.1,51.3C74,51.2,73.9,51,73.8,51c-0.1-0.1-0.3-0.1-0.4-0.2L78,44l-1.6-1.1l-4.6,6.9
				c-0.1-0.2-0.3-0.3-0.4-0.4c-0.2-0.1-0.3-0.1-0.5-0.2c-0.6-0.1-1.1,0.1-1.4,0.7c-0.3,0.5-0.2,1.1,0.1,1.6c0.1,0.1,0.2,0.2,0.4,0.3
				c0.2,0.1,0.5,0.2,0.7,0.2c0.2,0,0.3,0,0.5-0.1c0.1,0,0.3-0.1,0.4,0c0.2,0.1,0.2,0.4,0.3,0.6c0,0.2,0.1,0.3,0.2,0.4
				c0.1,0.2,0.3,0.4,0.5,0.5c0.2,0.1,0.3,0.1,0.5,0.2c0.6,0.1,1.1-0.1,1.4-0.7C74.6,52.4,74.5,51.7,74.1,51.3z"/>
			<path class="st23" d="M82.7,41.5l-5.5-3.7l-0.6-0.4l-1.9,4c0,0-1.3,3.2,0.8,4.6l0.1,0.1c2.2,1.5,4.6-1,4.6-1l3-3.2L82.7,41.5z"/>
			<ellipse transform="matrix(0.559 -0.8292 0.8292 0.559 2.6791 83.7734)" class="st23" cx="80.1" cy="39.4" rx="1.9" ry="4.1"/>
			<ellipse transform="matrix(0.559 -0.8292 0.8292 0.559 2.6791 83.7734)" class="st23" cx="80.1" cy="39.4" rx="0.8" ry="1.7"/>
		</g>
		<g>
			<circle class="st25" cx="84.9" cy="43.6" r="1.8"/>
			<g>
				<g>
					<path class="st23" d="M83.7,46.2c1.1,0.7,1.7,0.7,1.9,0.7c0.9-0.1,1.8-0.9,2.2-1.5c0.5-0.9,0.5-2.1,0.1-3
						c-0.2-0.3-0.6-0.7-0.8-1.1c-0.1-0.2-0.2-0.6-0.2-0.7"/>
					<line class="st23" x1="83.8" y1="46" x2="83.8" y2="46"/>
				</g>
				<g>
					<path class="st23" d="M83.7,46.2c-1.3-0.8-1.5-1.1-1.6-1.3c-0.4-0.9-0.2-2,0.2-2.7c0.5-0.9,1.5-1.5,2.5-1.6
						c0.4,0,0.8,0.1,1.3,0.1c0.3,0,0.7-0.2,0.8-0.1c0,0-0.8,1.6-1.4,1.8s-1.1,1.2-1.2,1.6c-0.1,0.4,0.2,0.7,0,1
						C84,45.5,83.6,46.3,83.7,46.2"/>
					<line class="st23" x1="83.8" y1="46" x2="83.8" y2="46"/>
				</g>
			</g>
			
				<linearGradient id="SVGID_10_" gradientUnits="userSpaceOnUse" x1="258.9454" y1="692.1394" x2="258.9454" y2="691.6371" gradientTransform="matrix(0.8605 0.5095 -0.5095 0.8605 216.0028 -683.875)">
				<stop  offset="0" style="stop-color:#FFFFFF"/>
				<stop  offset="1" style="stop-color:#F1DC26"/>
			</linearGradient>
			<path class="st36" d="M87.1,42.5c0,0-0.2,0.6-0.6,0.8c-0.4,0.2-0.6,0.5-0.6,0.5"/>
			
				<linearGradient id="SVGID_11_" gradientUnits="userSpaceOnUse" x1="259.0522" y1="694.3817" x2="259.0522" y2="693.9752" gradientTransform="matrix(0.8605 0.5095 -0.5095 0.8605 216.0028 -683.875)">
				<stop  offset="0" style="stop-color:#FFFFFF"/>
				<stop  offset="1" style="stop-color:#F1DC26"/>
			</linearGradient>
			<path class="st37" d="M85.5,44.4c0,0-0.1,0.5,0,0.7c0.2,0.2-0.2,0.7-0.2,0.7"/>
			
				<linearGradient id="SVGID_12_" gradientUnits="userSpaceOnUse" x1="259.8682" y1="693.1628" x2="259.8682" y2="692.7108" gradientTransform="matrix(0.8605 0.5095 -0.5095 0.8605 216.0028 -683.875)">
				<stop  offset="0" style="stop-color:#FFFFFF"/>
				<stop  offset="1" style="stop-color:#F1DC26"/>
			</linearGradient>
			<path class="st38" d="M87.1,43.9c0,0-0.8,0.6-0.7,1.3"/>
			<path class="st24" d="M84.9,41.2c0,0-0.2,0.4-0.6,0.5c-0.3,0.1-0.7,0.4-0.9,0.9c-0.3,0.5-0.3,0.8-0.3,1.3"/>
		</g>
		<g>
			<path class="st23" d="M87.9,56.7c-0.1,0.1-0.3,0.2-0.4,0.3c-0.1,0.1-0.2,0.2-0.2,0.4l-5.8-5.8l-1.4,1.3l5.8,5.9
				c-0.2,0.1-0.3,0.2-0.5,0.3c-0.1,0.1-0.2,0.3-0.3,0.4c-0.2,0.5-0.1,1.1,0.4,1.5c0.4,0.4,1.1,0.5,1.6,0.2c0.1-0.1,0.3-0.2,0.4-0.3
				c0.2-0.2,0.3-0.4,0.3-0.6c0-0.2,0-0.3,0-0.5c0-0.1,0-0.3,0-0.4c0.2-0.2,0.5-0.1,0.6-0.2c0.2,0,0.3,0,0.5-0.1
				c0.2-0.1,0.4-0.2,0.6-0.4c0.1-0.1,0.2-0.3,0.3-0.4c0.2-0.5,0.1-1.1-0.4-1.5C89.1,56.5,88.4,56.4,87.9,56.7z"/>
			<path class="st23" d="M80,46.4L75.2,51l-0.5,0.5l3.5,2.6c0,0,2.9,1.9,4.7,0.1l0.1-0.1c1.9-1.9,0-4.7,0-4.7l-2.6-3.5L80,46.4z"/>
			
				<ellipse transform="matrix(0.7116 -0.7026 0.7026 0.7116 -11.7537 68.3828)" class="st23" cx="77.4" cy="48.5" rx="4.1" ry="1.9"/>
			
				<ellipse transform="matrix(0.7116 -0.7026 0.7026 0.7116 -11.7537 68.3828)" class="st23" cx="77.4" cy="48.5" rx="1.7" ry="0.8"/>
		</g>
		<path class="st23" d="M89.3,51.9h-18h-1.8l0.9,9l0.9,9c0,3.3,2.7,6,6,6h6c3.3,0,6-2.7,6-6l0.9-9l0.9-9H89.3z"/>
		<g>
			<g>
				<line class="st24" x1="69.8" y1="53.6" x2="71.1" y2="53.6"/>
				<line class="st40" x1="72" y1="53.6" x2="73.4" y2="53.6"/>
				<line class="st41" x1="73.9" y1="53.6" x2="89.2" y2="53.6"/>
				<line class="st24" x1="89.7" y1="53.6" x2="90.9" y2="53.6"/>
			</g>
		</g>
		<g>
			<g>
				<line class="st24" x1="69.8" y1="55.6" x2="71.1" y2="55.6"/>
				<line class="st40" x1="72" y1="55.6" x2="73.4" y2="55.6"/>
				<line class="st41" x1="73.9" y1="55.6" x2="89.2" y2="55.6"/>
				<line class="st24" x1="89.7" y1="55.6" x2="90.9" y2="55.6"/>
			</g>
		</g>
		<g>
			<g>
				<line class="st24" x1="70.3" y1="57.6" x2="71.6" y2="57.6"/>
				<line class="st42" x1="72.5" y1="57.6" x2="73.8" y2="57.6"/>
				<line class="st43" x1="74.2" y1="57.6" x2="88.9" y2="57.6"/>
				<line class="st24" x1="89.3" y1="57.6" x2="90.6" y2="57.6"/>
			</g>
		</g>
		<g>
			<g>
				<line class="st24" x1="70.3" y1="59.6" x2="71.6" y2="59.6"/>
				<line class="st44" x1="72.5" y1="59.6" x2="73.8" y2="59.6"/>
				<line class="st45" x1="74.2" y1="59.6" x2="88.7" y2="59.6"/>
				<line class="st24" x1="89.1" y1="59.6" x2="90.4" y2="59.6"/>
			</g>
		</g>
		<g>
			<g>
				<line class="st24" x1="70.5" y1="61.6" x2="71.8" y2="61.6"/>
				<line class="st46" x1="72.6" y1="61.6" x2="73.9" y2="61.6"/>
				<line class="st47" x1="74.4" y1="61.6" x2="88.7" y2="61.6"/>
				<line class="st24" x1="89.1" y1="61.6" x2="90.4" y2="61.6"/>
			</g>
		</g>
		<g>
			<g>
				<line class="st24" x1="70.7" y1="63.6" x2="72" y2="63.6"/>
				<line class="st48" x1="72.8" y1="63.6" x2="74.1" y2="63.6"/>
				<line class="st49" x1="74.5" y1="63.6" x2="88.4" y2="63.6"/>
				<line class="st24" x1="88.8" y1="63.6" x2="90.1" y2="63.6"/>
			</g>
		</g>
		<g>
			<g>
				<line class="st24" x1="70.9" y1="65.6" x2="72.2" y2="65.6"/>
				<line class="st50" x1="73" y1="65.6" x2="74.2" y2="65.6"/>
				<line class="st51" x1="74.6" y1="65.6" x2="88.2" y2="65.6"/>
				<line class="st24" x1="88.6" y1="65.6" x2="89.9" y2="65.6"/>
			</g>
		</g>
		<g>
			<g>
				<line class="st24" x1="71.1" y1="67.6" x2="72.4" y2="67.6"/>
				<line class="st52" x1="73.2" y1="67.6" x2="74.4" y2="67.6"/>
				<line class="st53" x1="74.8" y1="67.6" x2="88" y2="67.6"/>
				<line class="st24" x1="88.4" y1="67.6" x2="89.6" y2="67.6"/>
			</g>
		</g>
		<g>
			<line class="st3" x1="71.4" y1="69.9" x2="90.9" y2="69.6"/>
			<g>
				<line class="st24" x1="71.4" y1="69.9" x2="72.6" y2="69.9"/>
				<line class="st54" x1="73.5" y1="69.9" x2="74.7" y2="69.8"/>
				<line class="st55" x1="75.2" y1="69.8" x2="89.2" y2="69.6"/>
				<line class="st24" x1="89.7" y1="69.6" x2="90.9" y2="69.6"/>
			</g>
		</g>
		<g>
			<line class="st3" x1="71.6" y1="71.6" x2="90.9" y2="71.6"/>
			<g>
				<line class="st24" x1="71.6" y1="71.6" x2="72.9" y2="71.6"/>
				<line class="st56" x1="73.7" y1="71.6" x2="75" y2="71.6"/>
				<line class="st57" x1="75.4" y1="71.6" x2="89.2" y2="71.6"/>
				<line class="st24" x1="89.7" y1="71.6" x2="90.9" y2="71.6"/>
			</g>
		</g>
		<g>
			<g>
				<line class="st24" x1="72.7" y1="73.6" x2="73.9" y2="73.6"/>
				<line class="st58" x1="75" y1="73.6" x2="76.7" y2="73.6"/>
				<line class="st59" x1="77.2" y1="73.6" x2="89.1" y2="73.6"/>
				<line class="st24" x1="89.7" y1="73.6" x2="90.9" y2="73.6"/>
			</g>
		</g>
		<g>
			<path class="st4" d="M94,75.8h-1.7v7.8H94c0.9,0,1.7-0.3,2.4-0.8v-6.2C95.8,76.2,94.9,75.8,94,75.8z"/>
		</g>
		<path class="st0" d="M97.9,79.8c0-1.3-0.6-2.4-1.5-3.1v6.2C97.3,82.1,97.9,81,97.9,79.8z"/>
		<g>
			<path class="st4" d="M97.2,88.5c0,1.3-1.1,2.4-2.4,2.4h-2.4v-4.9h2.4C96.1,86.1,97.2,87.2,97.2,88.5z"/>
		</g>
		<g>
			<path class="st4" d="M82.5,71c0-1.3,1.1-2.4,2.4-2.4h2.4v4.9H85C83.6,73.4,82.5,72.3,82.5,71z"/>
		</g>
		<path class="st0" d="M89.9,68.5h-2.4V71v2.4v2.5h-4.9v0H70.3h-6.1c-1.7,0-3.1,1.4-3.1,3.1v3.1V85c0,1.7,1.4,3.1,3.1,3.1
			c1.7,0,3.1-1.4,3.1-3.1v-3.1h3.1h6.4v8.7v6.1c0,1.7,1.4,3.1,3.1,3.1h3.1h3.1c1.7,0,3.1-1.4,3.1-3.1c0-1.7-1.4-3.1-3.1-3.1h-3.1
			v-3.1v-7h4.6v4.9c0,1.3,1.1,2.4,2.4,2.4h2.4v-2.4v-2.4v-2.4V76v-0.2V71C92.3,69.6,91.2,68.5,89.9,68.5z"/>
		<g>
			<path class="st0" d="M95,80.1c-0.3,0-0.5,0.2-0.5,0.5c0,0.3,0.2,0.5,0.5,0.5s0.5-0.2,0.5-0.5C95.5,80.3,95.3,80.1,95,80.1z"/>
			<path class="st0" d="M95,77.7c-0.3,0-0.5,0.2-0.5,0.5c0,0.3,0.2,0.5,0.5,0.5s0.5-0.2,0.5-0.5C95.5,77.9,95.3,77.7,95,77.7z"/>
		</g>
		<path class="st60" d="M93.8,78c-0.3,0.8-0.3,1.7,0,2.6"/>
	</g>
</g>
</svg>
