<?xml version="1.0" encoding="utf-8"?>
<!-- Generator: Adobe Illustrator 22.1.0, SVG Export Plug-In . SVG Version: 6.00 Build 0)  -->
<svg version="1.1" id="Layer_1" xmlns="http://www.w3.org/2000/svg" xmlns:xlink="http://www.w3.org/1999/xlink" x="0px" y="0px"
	 viewBox="0 0 100 100" style="enable-background:new 0 0 100 100;" xml:space="preserve">
<style type="text/css">
	.st0{fill:#010101;}
	.st1{fill:#F37021;}
	.st2{fill:#FCD00C;}
	.st3{fill:#FFFFFF;}
	.st4{fill:#BC772A;}
	.st5{fill:#BC772A;stroke:#010101;stroke-width:0.3347;stroke-miterlimit:10;}
	.st6{fill:#BB772B;}
	.st7{fill:#F8CCE0;}
	.st8{fill:#00BDF2;}
	.st9{fill:#FBD00D;}
	.st10{fill:#EF68A3;}
	.st11{fill:none;}
	.st12{fill:#6ECEF5;}
	.st13{fill:#E9262A;}
	.st14{fill:#015474;}
	.st15{fill:#0886B2;}
	.st16{fill:#221F1F;}
	.st17{fill:#FAF6BD;}
	.st18{fill:#D99628;}
	.st19{fill:#F9A554;}
	.st20{fill:#ED2938;}
	.st21{fill:#8D6F3D;stroke:#010101;stroke-width:0.4197;stroke-miterlimit:10;}
	.st22{fill:#8D6F3D;stroke:#010101;stroke-width:0.432;stroke-miterlimit:10;}
	.st23{fill:#FFFFFF;stroke:#010101;stroke-width:0.4855;stroke-miterlimit:10;}
	.st24{fill:none;stroke:#010101;stroke-width:0.4855;stroke-miterlimit:10;}
	.st25{fill:#FFFFFF;stroke:#010101;stroke-width:0.3138;stroke-miterlimit:10;}
	.st26{fill:url(#SVGID_1_);stroke:#010101;stroke-width:0.4855;stroke-miterlimit:10;}
	.st27{fill:url(#SVGID_2_);stroke:#010101;stroke-width:0.4855;stroke-miterlimit:10;}
	.st28{fill:url(#SVGID_3_);stroke:#010101;stroke-width:0.4855;stroke-miterlimit:10;}
	.st29{fill:#FFFFFF;stroke:#010101;stroke-width:0.4855;stroke-linecap:round;stroke-miterlimit:10;}
	.st30{fill:url(#SVGID_4_);stroke:#010101;stroke-width:0.4855;stroke-miterlimit:10;}
	.st31{fill:url(#SVGID_5_);stroke:#010101;stroke-width:0.4855;stroke-miterlimit:10;}
	.st32{fill:url(#SVGID_6_);stroke:#010101;stroke-width:0.4855;stroke-miterlimit:10;}
	.st33{fill:url(#SVGID_7_);stroke:#010101;stroke-width:0.4855;stroke-miterlimit:10;}
	.st34{fill:url(#SVGID_8_);stroke:#010101;stroke-width:0.4855;stroke-miterlimit:10;}
	.st35{fill:url(#SVGID_9_);stroke:#010101;stroke-width:0.4855;stroke-miterlimit:10;}
	.st36{fill:url(#SVGID_10_);stroke:#010101;stroke-width:0.4855;stroke-miterlimit:10;}
	.st37{fill:url(#SVGID_11_);stroke:#010101;stroke-width:0.4855;stroke-miterlimit:10;}
	.st38{fill:url(#SVGID_12_);stroke:#010101;stroke-width:0.4855;stroke-miterlimit:10;}
	.st39{fill:#FFFFFF;stroke:#010101;stroke-width:1.4119;stroke-miterlimit:10;}
	.st40{fill:none;stroke:#010101;stroke-width:0.4855;stroke-miterlimit:10;stroke-dasharray:0.93,0.93;}
	.st41{fill:none;stroke:#010101;stroke-width:0.4855;stroke-miterlimit:10;stroke-dasharray:2.4799,0.93,0.93,0.93;}
	.st42{fill:none;stroke:#010101;stroke-width:0.4855;stroke-miterlimit:10;stroke-dasharray:0.8869,0.8869;}
	.st43{fill:none;stroke:#010101;stroke-width:0.4855;stroke-miterlimit:10;stroke-dasharray:2.365,0.8869,0.8869,0.8869;}
	.st44{fill:none;stroke:#010101;stroke-width:0.4855;stroke-miterlimit:10;stroke-dasharray:0.8768,0.8768;}
	.st45{fill:none;stroke:#010101;stroke-width:0.4855;stroke-miterlimit:10;stroke-dasharray:2.3382,0.8768,0.8768,0.8768;}
	.st46{fill:none;stroke:#010101;stroke-width:0.4855;stroke-miterlimit:10;stroke-dasharray:0.8668,0.8668;}
	.st47{fill:none;stroke:#010101;stroke-width:0.4855;stroke-miterlimit:10;stroke-dasharray:2.3116,0.8668,0.8668,0.8668;}
	.st48{fill:none;stroke:#010101;stroke-width:0.4855;stroke-miterlimit:10;stroke-dasharray:0.8407,0.8407;}
	.st49{fill:none;stroke:#010101;stroke-width:0.4855;stroke-miterlimit:10;stroke-dasharray:2.2418,0.8407,0.8407,0.8407;}
	.st50{fill:none;stroke:#010101;stroke-width:0.4855;stroke-miterlimit:10;stroke-dasharray:0.8217,0.8217;}
	.st51{fill:none;stroke:#010101;stroke-width:0.4855;stroke-miterlimit:10;stroke-dasharray:2.1911,0.8217,0.8217,0.8217;}
	.st52{fill:none;stroke:#010101;stroke-width:0.4855;stroke-miterlimit:10;stroke-dasharray:0.7993,0.7993;}
	.st53{fill:none;stroke:#010101;stroke-width:0.4855;stroke-miterlimit:10;stroke-dasharray:2.1314,0.7993,0.7993,0.7993;}
	.st54{fill:none;stroke:#010101;stroke-width:0.4855;stroke-miterlimit:10;stroke-dasharray:0.8527,0.8527;}
	.st55{fill:none;stroke:#010101;stroke-width:0.4855;stroke-miterlimit:10;stroke-dasharray:2.2739,0.8527,0.8527,0.8527;}
	.st56{fill:none;stroke:#010101;stroke-width:0.4855;stroke-miterlimit:10;stroke-dasharray:0.8398,0.8398;}
	.st57{fill:none;stroke:#010101;stroke-width:0.4855;stroke-miterlimit:10;stroke-dasharray:2.2396,0.8398,0.8398,0.8398;}
	.st58{fill:none;stroke:#010101;stroke-width:0.4855;stroke-miterlimit:10;stroke-dasharray:1.098,1.098;}
	.st59{fill:none;stroke:#010101;stroke-width:0.4855;stroke-miterlimit:10;stroke-dasharray:2.928,1.098,1.098,1.098;}
	.st60{fill:none;stroke:#010101;stroke-width:0.5849;stroke-linecap:round;stroke-miterlimit:10;}
	.st61{fill:none;stroke:#010101;stroke-width:0.4614;stroke-linecap:round;stroke-miterlimit:10;}
	.st62{fill:#FFFFFF;stroke:#010101;stroke-width:0.4614;stroke-miterlimit:10;}
	.st63{fill:#EF486A;}
	.st64{fill:none;stroke:#010101;stroke-width:0.4614;stroke-miterlimit:10;}
	.st65{fill:none;stroke:#00BDF2;stroke-width:0.4614;stroke-miterlimit:10;}
	.st66{fill:#FFFFFF;stroke:#010101;stroke-width:0.517;stroke-linecap:round;stroke-linejoin:round;stroke-miterlimit:10;}
	.st67{fill:none;stroke:#010101;stroke-width:0.498;stroke-linejoin:round;stroke-miterlimit:10;}
	.st68{fill:#010101;stroke:#010101;stroke-width:0.517;stroke-miterlimit:10;}
	.st69{fill:#010101;stroke:#B92227;stroke-width:0.517;stroke-miterlimit:10;}
	.st70{fill:#010101;stroke:#B92227;stroke-width:0.332;stroke-miterlimit:10;}
	.st71{fill:#F1DC28;}
	.st72{fill:#FCD00C;stroke:#010101;stroke-width:0.5559;stroke-miterlimit:10;}
	.st73{fill:#FFFFFF;stroke:#010101;stroke-width:0.3267;stroke-miterlimit:10;}
	.st74{fill:none;stroke:#010101;stroke-width:0.3267;stroke-linecap:round;stroke-miterlimit:10;}
</style>
<g>
	<path class="st0" d="M27.6,72.9c-1.6,0-3,1.3-3,3v3h-3h-6.8v-4.5h4.8c1.3,0,2.4-1.1,2.4-2.4v-2.4h-2.4h-2.4h-2.4h-0.5H7.7H7.2H2.4
		c-1.3,0-2.4,1.1-2.4,2.4v2.4h2.4h2.4h2.4v4.8h0V91v6c0,1.6,1.3,3,3,3h3h3c1.6,0,3-1.3,3-3c0-1.6-1.3-3-3-3h-3v-3v-6.2h8.5h6
		c1.6,0,3-1.3,3-3v-3v-3C30.6,74.2,29.2,72.9,27.6,72.9z"/>
	<rect x="23" y="58.3" class="st0" width="5" height="1.8"/>
	<circle class="st0" cx="22.5" cy="63.2" r="0.9"/>
	<circle class="st0" cx="27.1" cy="62.1" r="0.9"/>
	<circle class="st0" cx="25.2" cy="62.1" r="0.9"/>
	<g>
		<rect x="23" y="59.2" class="st0" width="0.5" height="3.9"/>
	</g>
	<g>
		<rect x="25.7" y="59.2" class="st0" width="0.5" height="2.9"/>
	</g>
	<g>
		<rect x="27.6" y="59.2" class="st0" width="0.5" height="2.9"/>
	</g>
	<g>
		<path class="st4" d="M7.2,67.9v1.7h7.6v-1.7c0-0.9-0.3-1.7-0.8-2.4H8C7.5,66.2,7.2,67,7.2,67.9z"/>
	</g>
	<path class="st0" d="M11,64c-1.2,0-2.3,0.6-3,1.5h6C13.3,64.6,12.2,64,11,64z"/>
	<g>
		<path class="st4" d="M19.6,64.8c1.3,0,2.4,1.1,2.4,2.4v2.4h-4.8v-2.4C17.2,65.8,18.3,64.8,19.6,64.8z"/>
	</g>
	<g>
		<path class="st4" d="M2.4,79.1C1.1,79.1,0,78,0,76.7l0-2.4h4.8v2.4C4.8,78,3.7,79.1,2.4,79.1z"/>
	</g>
	<g>
		<path class="st0" d="M11.3,66.9c0,0.3,0.2,0.5,0.5,0.5c0.3,0,0.5-0.2,0.5-0.5c0-0.3-0.2-0.5-0.5-0.5
			C11.5,66.4,11.3,66.6,11.3,66.9z"/>
		<path class="st0" d="M9,66.9c0,0.3,0.2,0.5,0.5,0.5c0.3,0,0.5-0.2,0.5-0.5c0-0.3-0.2-0.5-0.5-0.5C9.2,66.4,9,66.6,9,66.9z"/>
	</g>
	<path class="st61" d="M9.3,68.1c0.8,0.3,1.7,0.3,2.6,0"/>
	<polygon class="st62" points="18.6,78.3 14.4,74.1 8.6,74.1 4.4,78.3 4.4,84.1 8.6,88.3 14.4,88.3 18.6,84.1 	"/>
	
		<rect x="20" y="67.5" transform="matrix(-0.7071 0.7071 -0.7071 -0.7071 84.4778 103.5328)" class="st62" width="1.5" height="3.5"/>
	
		<rect x="18" y="69.5" transform="matrix(-0.7071 0.7071 -0.7071 -0.7071 82.4757 108.3661)" class="st62" width="1.5" height="3.5"/>
	
		<rect x="22.7" y="70.1" transform="matrix(-0.7071 0.7071 -0.7071 -0.7071 90.842 106.169)" class="st62" width="1.5" height="3.5"/>
	
		<rect x="20.7" y="72.1" transform="matrix(-0.7071 0.7071 -0.7071 -0.7071 88.84 111.0023)" class="st62" width="1.5" height="3.5"/>
	<line class="st62" x1="15.4" y1="76.4" x2="16.5" y2="77.4"/>
	<line class="st62" x1="16.3" y1="75.5" x2="17.4" y2="76.6"/>
	<line class="st62" x1="17.4" y1="74.4" x2="18.5" y2="75.5"/>
	<line class="st62" x1="18.7" y1="73.1" x2="19.8" y2="74.2"/>
	<polygon class="st63" points="8.6,74.3 6.4,76.5 11.6,74.3 	"/>
	<polygon class="st63" points="4.5,78.4 4.5,81.4 6.7,76.3 	"/>
	<polygon class="st63" points="4.6,84.1 6.8,86.2 4.6,81.1 	"/>
	<polygon class="st63" points="8.6,88 11.6,88 6.4,85.9 	"/>
	<polygon class="st63" points="14.3,88.1 16.4,85.9 11.3,88.1 	"/>
	<polygon class="st63" points="18.4,84.1 18.4,81.1 16.3,86.2 	"/>
	<polygon class="st63" points="18.4,78.4 16.3,76.3 18.4,81.4 	"/>
	<polygon class="st63" points="14.4,74.3 11.4,74.3 16.5,76.5 	"/>
	<polygon class="st64" points="18.6,78.3 14.4,74.1 8.6,74.1 4.4,78.3 4.4,84.1 8.6,88.3 14.4,88.3 18.6,84.1 	"/>
	<circle class="st62" cx="11.6" cy="81.3" r="5.2"/>
	<circle class="st65" cx="11.6" cy="81.3" r="4.4"/>
	
		<rect x="15.1" y="65.9" transform="matrix(0.7071 0.7071 -0.7071 0.7071 59.1231 11.3828)" class="st62" width="1.5" height="22.4"/>
	<rect x="5.3" y="86.1" transform="matrix(0.7071 0.7071 -0.7071 0.7071 63.1727 21.1596)" class="st62" width="1.5" height="1.5"/>
	<circle class="st62" cx="11.6" cy="81.3" r="2.2"/>
	<circle class="st62" cx="11.6" cy="81.3" r="1"/>
	<line class="st62" x1="13.3" y1="78.5" x2="14.3" y2="79.6"/>
	<line class="st62" x1="13.9" y1="77.9" x2="15" y2="79"/>
	<line class="st62" x1="14.6" y1="77.2" x2="15.6" y2="78.3"/>
</g>
<path class="st66" d="M41.2,71.1l2.4-2.8c0,0,1.5-1.6,2.8-1.6s2.7,0,2.7,0s-3.6,1.9-4,2.6C44.8,70,44,71.1,44,71.1"/>
<line class="st67" x1="41.4" y1="70.9" x2="46.7" y2="68.1"/>
<polyline class="st68" points="53.8,88.4 58.9,92.6 58.5,99.5 59.8,99.5 61.5,90.5 59.1,88.4 "/>
<polyline class="st68" points="44.7,88.7 43.2,99.5 44.4,99.5 46.5,90.7 "/>
<polyline class="st69" points="36.7,77.3 36.7,80 37.8,80 39.2,77.3 "/>
<path class="st70" d="M40.1,77.3H39h-2.3c-0.2,0-0.7-0.2-1-0.9c-0.2-0.8,0.5-1.8,0.7-2c0.3-0.2,2.4-2.3,2.4-2.3s0.7-0.9,2.4-1
	c1.7-0.1,5.8,0,5.8,0s-1.7,2.3-3,2.3l2.9,5.4H60c0,0,3.6,0.2,4.8,1.8l3.4-1.7c0,0,0.5,1.7-1.5,4l-1,4l1.4,1.6L65.7,100H64l0-7.4
	l-4.8-4.2h-8.5v11.6h-2l-0.7-8c0,0-6.4-5.4-7-10.3L40.1,77.3z"/>
<circle class="st2" cx="39.7" cy="73.7" r="0.7"/>
<g>
	<polyline class="st68" points="57.1,89.2 55.6,100 56.9,100 59,91.2 	"/>
	<polyline class="st68" points="73.1,89.2 71.5,100 72.8,100 74.9,91.2 	"/>
	<path class="st66" d="M53.7,71.1l2.4-2.8c0,0,1.5-1.6,2.8-1.6s2.7,0,2.7,0s-3.6,1.9-4,2.6c-0.4,0.7-1.2,1.8-1.2,1.8"/>
	<line class="st67" x1="53.8" y1="70.9" x2="59.2" y2="68.1"/>
	<polyline class="st69" points="49.2,77.3 49.2,80 50.3,80 51.6,77.3 	"/>
	<path class="st70" d="M52.5,77.3h-1.1h-2.3c-0.2,0-0.7-0.2-1-0.9c-0.2-0.8,0.5-1.8,0.7-2c0.3-0.2,2.4-2.3,2.4-2.3s0.7-0.9,2.4-1
		c1.7-0.1,5.8,0,5.8,0s-1.7,2.3-3,2.3l2.9,5.4h13.1c0,0,3.6,0.2,4.8,1.8l3.4-1.7c0,0,0.5,1.7-1.5,4l-1,4l1.4,1.6L78.1,100h-1.7
		l0-7.4l-4.8-4.2H63v11.6h-2l-0.7-8c0,0-6.4-5.4-7-10.3L52.5,77.3z"/>
	<circle class="st2" cx="52.2" cy="73.7" r="0.7"/>
</g>
<circle class="st71" cx="39.6" cy="73.9" r="0.7"/>
<circle class="st71" cx="39.6" cy="73.8" r="0.7"/>
<g>
	<path class="st73" d="M29,89.1c0,0-0.2-1.2-0.8-0.8c-0.6,0.4-0.6,1.8-0.6,1.8"/>
	<path class="st73" d="M28.4,91.4c0,0-0.9,1.7-0.2,3.8c0.7,2.1,2.5,2.5,2.5,2.5s1.9,0.4,3.5-0.8c1.5-1.2,1.9-2.2,1.9-2.9
		c0-0.7-0.5-1.1-0.5-1.1s-0.8,0.9-2.2,0.5c-1.4-0.4-2.5-1-2.7-2s-0.2-2.1-1-2.3C28.8,89,27,90.6,27,90.6L28.4,91.4z"/>
	<circle class="st0" cx="29.2" cy="90.4" r="0.3"/>
	<path class="st74" d="M29.9,94.2c0,0,0.2,0.5,0.7,0.5c0.5,0,1-0.4,1.2-0.9"/>
	<path class="st74" d="M30.5,94.9c0,0,0.3,0.5,0.9,0.5c0.6,0,1.2-0.4,1.5-1"/>
	<path class="st74" d="M34.3,94.2c0,0-0.4,1.3-1.2,1.4c-0.8,0.1-1-0.3-1-0.3"/>
	<polyline class="st74" points="29.1,99.7 30.2,99 30,97.4 	"/>
	<polyline class="st74" points="29.5,98.6 30.2,99 30.7,99.6 	"/>
	<polyline class="st74" points="31.8,99.8 32.9,99 32.7,97.7 	"/>
	<polyline class="st74" points="32.2,98.6 32.9,99 33.4,99.6 	"/>
</g>
<g>
	<path class="st73" d="M85.6,89.1c0,0-0.2-1.2-0.8-0.8c-0.6,0.4-0.6,1.8-0.6,1.8"/>
	<path class="st73" d="M85,91.4c0,0-0.9,1.7-0.2,3.8c0.7,2.1,2.5,2.5,2.5,2.5s1.9,0.4,3.5-0.8c1.5-1.2,1.9-2.2,1.9-2.9
		c0-0.7-0.5-1.1-0.5-1.1s-0.8,0.9-2.2,0.5c-1.4-0.4-2.5-1-2.7-2s-0.2-2.1-1-2.3c-0.8-0.1-2.6,1.5-2.6,1.5L85,91.4z"/>
	<circle class="st0" cx="85.8" cy="90.4" r="0.3"/>
	<path class="st74" d="M86.5,94.2c0,0,0.2,0.5,0.7,0.5s1-0.4,1.2-0.9"/>
	<path class="st74" d="M87.1,94.9c0,0,0.3,0.5,0.9,0.5c0.6,0,1.2-0.4,1.5-1"/>
	<path class="st74" d="M90.9,94.2c0,0-0.4,1.3-1.2,1.4c-0.8,0.1-1-0.3-1-0.3"/>
	<polyline class="st74" points="85.8,99.7 86.8,99 86.6,97.4 	"/>
	<polyline class="st74" points="86.1,98.6 86.8,99 87.3,99.6 	"/>
	<polyline class="st74" points="88.4,99.8 89.5,99 89.3,97.7 	"/>
	<polyline class="st74" points="88.8,98.6 89.5,99 90,99.6 	"/>
</g>
<g>
	<path class="st73" d="M75.2,89.1c0,0-0.2-1.2-0.8-0.8c-0.6,0.4-0.6,1.8-0.6,1.8"/>
	<path class="st73" d="M74.5,91.4c0,0-0.9,1.7-0.2,3.8c0.7,2.1,2.5,2.5,2.5,2.5s1.9,0.4,3.5-0.8c1.5-1.2,1.9-2.2,1.9-2.9
		c0-0.7-0.5-1.1-0.5-1.1s-0.8,0.9-2.2,0.5c-1.4-0.4-2.5-1-2.7-2c-0.2-1-0.2-2.1-1-2.3c-0.8-0.1-2.6,1.5-2.6,1.5L74.5,91.4z"/>
	<circle class="st0" cx="75.3" cy="90.4" r="0.3"/>
	<path class="st74" d="M76,94.2c0,0,0.2,0.5,0.7,0.5c0.5,0,1-0.4,1.2-0.9"/>
	<path class="st74" d="M76.6,94.9c0,0,0.3,0.5,0.9,0.5c0.6,0,1.2-0.4,1.5-1"/>
	<path class="st74" d="M80.4,94.2c0,0-0.4,1.3-1.2,1.4c-0.8,0.1-1-0.3-1-0.3"/>
	<polyline class="st74" points="75.3,99.7 76.3,99 76.2,97.4 	"/>
	<polyline class="st74" points="75.7,98.6 76.3,99 76.9,99.6 	"/>
	<polyline class="st74" points="77.9,99.8 79,99 78.8,97.7 	"/>
	<polyline class="st74" points="78.3,98.6 79,99 79.5,99.6 	"/>
</g>
<g>
	<path class="st73" d="M93,89.1c0,0-0.2-1.2-0.8-0.8c-0.6,0.4-0.6,1.8-0.6,1.8"/>
	<path class="st73" d="M92.4,91.4c0,0-0.9,1.7-0.2,3.8c0.7,2.1,2.5,2.5,2.5,2.5s1.9,0.4,3.5-0.8c1.5-1.2,1.9-2.2,1.9-2.9
		c0-0.7-0.5-1.1-0.5-1.1s-0.8,0.9-2.2,0.5c-1.4-0.4-2.5-1-2.7-2s-0.2-2.1-1-2.3C92.7,89,91,90.6,91,90.6L92.4,91.4z"/>
	<circle class="st0" cx="93.2" cy="90.4" r="0.3"/>
	<path class="st74" d="M93.8,94.2c0,0,0.2,0.5,0.7,0.5s1-0.4,1.2-0.9"/>
	<path class="st74" d="M94.5,94.9c0,0,0.3,0.5,0.9,0.5c0.6,0,1.2-0.4,1.5-1"/>
	<path class="st74" d="M98.2,94.2c0,0-0.4,1.3-1.2,1.4c-0.8,0.1-1-0.3-1-0.3"/>
	<polyline class="st74" points="93.1,99.7 94.2,99 94,97.4 	"/>
	<polyline class="st74" points="93.5,98.6 94.2,99 94.7,99.6 	"/>
	<polyline class="st74" points="95.8,99.8 96.8,99 96.7,97.7 	"/>
	<polyline class="st74" points="96.1,98.6 96.8,99 97.3,99.6 	"/>
</g>
</svg>
